<svg width="30" height="30" viewBox="0 0 30 30" fill="none" xmlns="http://www.w3.org/2000/svg">
<path d="M10.7296 5.11188C12.6301 1.70396 13.5795 0 15 0C16.4205 0 17.3699 1.70396 19.2704 5.11188L19.7624 5.99386C20.3024 6.96284 20.5724 7.44732 20.9924 7.76682C21.4123 8.08631 21.9373 8.20481 22.9873 8.4418L23.9413 8.65779C27.6312 9.49328 29.4747 9.91027 29.9142 11.3217C30.3521 12.7317 29.0952 14.2032 26.5797 17.1446L25.9287 17.9051C25.2148 18.7406 24.8563 19.159 24.6958 19.675C24.5353 20.1925 24.5893 20.7505 24.6973 21.865L24.7963 22.8805C25.1758 26.8059 25.3663 28.7678 24.2173 29.6393C23.0683 30.5108 21.3404 29.7158 17.8874 28.1258L16.992 27.7148C16.011 27.2619 15.5205 27.0369 15 27.0369C14.4795 27.0369 13.989 27.2619 13.008 27.7148L12.1141 28.1258C8.65965 29.7158 6.93169 30.5108 5.78422 29.6408C4.63374 28.7678 4.82424 26.8059 5.20373 22.8805L5.30273 21.8665C5.41073 20.7505 5.46472 20.1925 5.30273 19.6765C5.14373 19.159 4.78524 18.7406 4.07126 17.9066L3.42027 17.1446C0.904832 14.2047 -0.352139 12.7332 0.0858505 11.3217C0.52384 9.91027 2.3703 9.49178 6.06021 8.65779L7.01419 8.4418C8.06266 8.20481 8.58615 8.08631 9.00764 7.76682C9.42913 7.44732 9.69762 6.96284 10.2376 5.99386L10.7296 5.11188Z" fill="#EEF0F1"/>
</svg>
