<svg width="375" height="60" viewBox="0 0 375 60" fill="none" xmlns="http://www.w3.org/2000/svg">
<rect x="0.5" y="0.5" width="374" height="59" fill="#FEFFFF" stroke="#D1D8DB"/>
<path d="M338 10.1665C332.017 10.1665 327.167 15.0166 327.167 20.9998C327.167 26.9831 332.017 31.8332 338 31.8332C343.983 31.8332 348.833 26.9831 348.833 20.9998C348.833 15.0166 343.983 10.1665 338 10.1665Z" stroke="#97A6AF" stroke-width="1.5" stroke-linecap="round" stroke-linejoin="round"/>
<path d="M329.627 27.8748C329.627 27.8748 332.042 24.7917 338 24.7917C343.958 24.7917 346.374 27.8748 346.374 27.8748M338 21C338.862 21 339.689 20.6576 340.298 20.0481C340.908 19.4386 341.25 18.612 341.25 17.75C341.25 16.888 340.908 16.0614 340.298 15.4519C339.689 14.8424 338.862 14.5 338 14.5C337.138 14.5 336.311 14.8424 335.702 15.4519C335.092 16.0614 334.75 16.888 334.75 17.75C334.75 18.612 335.092 19.4386 335.702 20.0481C336.311 20.6576 337.138 21 338 21Z" stroke="#97A6AF" stroke-width="1.5" stroke-linecap="round" stroke-linejoin="round"/>
<path d="M196.667 29.5832V20.3748C196.667 20.2067 196.628 20.0408 196.552 19.8904C196.477 19.7399 196.368 19.6091 196.233 19.5082L188.65 13.8207C188.463 13.68 188.235 13.604 188 13.604C187.766 13.604 187.538 13.68 187.35 13.8207L179.767 19.5082C179.632 19.6091 179.523 19.7399 179.448 19.8904C179.373 20.0408 179.333 20.2067 179.333 20.3748V29.5832C179.333 29.8705 179.448 30.146 179.651 30.3492C179.854 30.5524 180.13 30.6665 180.417 30.6665H184.75C185.037 30.6665 185.313 30.5524 185.516 30.3492C185.719 30.146 185.833 29.8705 185.833 29.5832V26.3332C185.833 26.0459 185.948 25.7703 186.151 25.5671C186.354 25.364 186.63 25.2498 186.917 25.2498H189.083C189.371 25.2498 189.646 25.364 189.85 25.5671C190.053 25.7703 190.167 26.0459 190.167 26.3332V29.5832C190.167 29.8705 190.281 30.146 190.484 30.3492C190.687 30.5524 190.963 30.6665 191.25 30.6665H195.583C195.871 30.6665 196.146 30.5524 196.35 30.3492C196.553 30.146 196.667 29.8705 196.667 29.5832Z" stroke="#97A6AF" stroke-width="1.5" stroke-linecap="round" stroke-linejoin="round"/>
<path d="M191.068 47.8086H183.896V44.832H191.068V47.8086ZM184.811 47.0938H190.166V45.5469H184.811V47.0938ZM191.678 39.125H183.229V38.4102H191.678V39.125ZM187.482 39.5469C188.576 39.5547 189.412 39.6816 189.99 39.9277C190.568 40.1738 190.857 40.5391 190.857 41.0234C190.857 41.5078 190.568 41.875 189.99 42.125C189.412 42.375 188.576 42.5 187.482 42.5C186.396 42.5 185.561 42.375 184.975 42.125C184.389 41.875 184.096 41.5078 184.096 41.0234C184.096 40.5391 184.389 40.1738 184.975 39.9277C185.561 39.6816 186.396 39.5547 187.482 39.5469ZM187.482 40.1914C186.967 40.1914 186.529 40.2246 186.17 40.291C185.811 40.3574 185.539 40.4512 185.355 40.5723C185.172 40.6934 185.08 40.8438 185.08 41.0234C185.08 41.1953 185.174 41.3438 185.361 41.4688C185.549 41.5938 185.822 41.6895 186.182 41.7559C186.541 41.8223 186.975 41.8555 187.482 41.8555C187.99 41.8555 188.424 41.8223 188.783 41.7559C189.143 41.6895 189.416 41.5938 189.604 41.4688C189.791 41.3438 189.885 41.1953 189.885 41.0234C189.885 40.8438 189.791 40.6934 189.604 40.5723C189.416 40.4512 189.145 40.3574 188.789 40.291C188.434 40.2246 187.998 40.1914 187.482 40.1914ZM187.939 38.8789H187.025V37.3789H187.939V38.8789ZM192.229 44.0352H182.736V43.2969H192.229V44.0352ZM187.939 43.7188H187.025V42.2656H187.939V43.7188Z" fill="#97A6AF"/>
<path d="M105.948 42.3945C107.089 42.4023 107.991 42.3867 108.655 42.3477C109.319 42.3086 109.979 42.2266 110.636 42.1016L110.741 42.8516C110.061 42.9688 109.384 43.0469 108.708 43.0859C108.032 43.125 107.112 43.1406 105.948 43.1328H105.163V42.3945H105.948ZM109.956 38.9492H106.077V42.7695H105.163V38.1758H109.956V38.9492ZM109.757 41.0117H105.772V40.25H109.757V41.0117ZM112.815 47.8086H106.241V44.2109H112.815V47.8086ZM107.143 47.0586H111.901V44.9492H107.143V47.0586ZM112.815 43.6719H111.901V37.5312H112.815V43.6719ZM114.386 40.9062H112.557V40.1211H114.386V40.9062ZM117.767 39.5703C117.767 40.0938 117.667 40.6113 117.468 41.123C117.269 41.6348 116.985 42.0957 116.618 42.5059C116.251 42.916 115.818 43.2305 115.318 43.4492L114.814 42.7344C115.259 42.5391 115.65 42.2676 115.985 41.9199C116.321 41.5723 116.579 41.1934 116.759 40.7832C116.939 40.373 117.028 39.9688 117.028 39.5703V38.1758H117.767V39.5703ZM117.907 39.5703C117.907 39.9609 117.993 40.3477 118.165 40.7305C118.337 41.1133 118.583 41.457 118.903 41.7617C119.224 42.0664 119.603 42.3047 120.04 42.4766L119.548 43.1914C119.056 42.9883 118.632 42.7012 118.276 42.3301C117.921 41.959 117.65 41.5352 117.462 41.0586C117.275 40.582 117.181 40.0859 117.181 39.5703V38.1758H117.907V39.5703ZM123.65 43.8359H122.771V37.543H123.65V43.8359ZM123.052 41.0352H121.048V40.2617H123.052V41.0352ZM121.388 43.7773H120.521V37.7305H121.388V43.7773ZM123.65 47.9492H122.747V45.1719H116.63V44.4102H123.65V47.9492Z" fill="#97A6AF"/>
<path d="M28.2693 38.1289C28.2693 38.9492 28.1228 39.6953 27.8298 40.3672C27.5369 41.0391 27.0857 41.6328 26.4763 42.1484C25.867 42.6641 25.0974 43.0977 24.1677 43.4492L23.7576 42.793C24.5857 42.4883 25.2673 42.1191 25.8025 41.6855C26.3377 41.252 26.7341 40.7637 26.992 40.2207C27.2498 39.6777 27.3787 39.0781 27.3787 38.4219V38.1289H28.2693ZM27.6834 38.8906H24.1912V38.1289H27.6834V38.8906ZM23.8396 40.9414L23.6873 40.168L27.2615 39.9336V40.5781L23.8396 40.9414ZM32.4529 43.0273H31.574V37.543H32.4529V43.0273ZM31.8904 40.707H29.8748V39.9336H31.8904V40.707ZM30.156 42.9453H29.2771V37.7422H30.156V42.9453ZM32.4529 45.9336H26.4763V47.4922H25.5623V45.2305H31.5505V44.2344H25.5388V43.4961H32.4529V45.9336ZM32.8748 47.8086H25.5623V47.0703H32.8748V47.8086ZM42.3262 45.207H41.4238V37.543H42.3262V45.207ZM42.6309 47.7266H35.4941V46.9531H42.6309V47.7266ZM36.4199 47.3398H35.4941V44.6094H36.4199V47.3398ZM35.1309 42.957C36.1934 42.957 37.0977 42.9316 37.8438 42.8809C38.5898 42.8301 39.3535 42.7383 40.1348 42.6055L40.2285 43.3672C39.4316 43.5 38.6562 43.5918 37.9023 43.6426C37.1484 43.6934 36.2246 43.7227 35.1309 43.7305H34.2871V42.957H35.1309ZM39.0215 41.293H35.1777V43.2031H34.2871V40.5664H38.1074V39.0312H34.2637V38.2812H39.0215V41.293ZM45.1916 44.6094C46.2307 44.6094 47.0959 44.5859 47.7873 44.5391C48.4788 44.4922 49.176 44.4023 49.8791 44.2695L49.9963 45.0312C49.262 45.1719 48.5413 45.2676 47.8342 45.3184C47.1272 45.3691 46.2463 45.3945 45.1916 45.3945H44.3948V44.6094H45.1916ZM49.176 39.3008H45.3205V44.8906H44.3948V38.5273H49.176V39.3008ZM52.5159 47.9727H51.5901V37.5312H52.5159V47.9727ZM51.9768 42.0898H48.5549V41.3281H51.9768V42.0898Z" fill="#97A6AF"/>
<path d="M248.837 39.6211C248.837 40.6914 248.69 41.6836 248.397 42.5977C248.104 43.5117 247.606 44.3633 246.903 45.1523C246.2 45.9414 245.258 46.6328 244.079 47.2266L243.551 46.5234C244.614 45.9922 245.469 45.3828 246.118 44.6953C246.766 44.0078 247.233 43.2539 247.518 42.4336C247.803 41.6133 247.946 40.7109 247.946 39.7266V39.6211H248.837ZM248.497 40.3828H244.114V39.6211H248.497V40.3828ZM243.751 43.2891L243.587 42.4922L247.876 42.2109V42.9023L243.751 43.2891ZM252.165 48.9492H251.251V38.5312H252.165V48.9492ZM251.696 43.4883H248.801V42.7266H251.696V43.4883ZM257.022 49.0312H256.108V44.8359H257.022V49.0312ZM260.761 49.0312H259.847V44.8359H260.761V49.0312ZM263.198 45.3281H253.659V44.5664H263.198V45.3281ZM261.956 43.1602H254.89V39.1055H261.956V43.1602ZM255.792 42.4219H261.042V39.8555H255.792V42.4219ZM272.392 48.9492H271.478V38.5312H272.392V48.9492ZM265.384 46.0078H264.482V39.5625H265.384V46.0078ZM265.325 45.4688C266.177 45.4688 267.019 45.4297 267.851 45.3516C268.683 45.2734 269.521 45.1445 270.364 44.9648L270.493 45.75C269.61 45.9297 268.749 46.0605 267.909 46.1426C267.069 46.2246 266.208 46.2656 265.325 46.2656H264.482V45.4688H265.325ZM275.433 45.6797C276.472 45.6797 277.363 45.6543 278.105 45.6035C278.847 45.5527 279.609 45.4648 280.39 45.3398L280.484 46.1016C279.71 46.2266 278.947 46.3125 278.193 46.3594C277.439 46.4062 276.519 46.4336 275.433 46.4414H274.601V45.6797H275.433ZM279.675 40.2539H275.515V45.9375H274.601V39.4805H279.675V40.2539ZM279.3 43.1602H275.292V42.4102H279.3V43.1602ZM282.546 48.9492H281.62V38.5312H282.546V48.9492Z" fill="#97A6AF"/>
<path d="M333.909 45.3008H329.104V38.5859H333.909V45.3008ZM329.995 44.5508H332.995V39.3242H329.995V44.5508ZM336.733 47.9492H335.819V37.5312H336.733V47.9492ZM338.479 42.4883H336.522V41.6914H338.479V42.4883ZM347.392 47.9727H346.466V37.5312H347.392V47.9727ZM341.849 38.3398C342.364 38.3398 342.823 38.4902 343.226 38.791C343.628 39.0918 343.943 39.5156 344.169 40.0625C344.396 40.6094 344.509 41.2461 344.509 41.9727C344.509 42.6992 344.396 43.3359 344.169 43.8828C343.943 44.4297 343.628 44.8516 343.226 45.1484C342.823 45.4453 342.364 45.5938 341.849 45.5938C341.333 45.5938 340.874 45.4453 340.472 45.1484C340.069 44.8516 339.755 44.4297 339.528 43.8828C339.302 43.3359 339.189 42.6992 339.189 41.9727C339.189 41.2461 339.302 40.6094 339.528 40.0625C339.755 39.5156 340.069 39.0918 340.472 38.791C340.874 38.4902 341.333 38.3398 341.849 38.3398ZM341.849 39.1602C341.505 39.1602 341.198 39.2773 340.929 39.5117C340.659 39.7461 340.45 40.0742 340.302 40.4961C340.153 40.918 340.079 41.4102 340.079 41.9727C340.079 42.5273 340.153 43.0176 340.302 43.4434C340.45 43.8691 340.659 44.1973 340.929 44.4277C341.198 44.6582 341.505 44.7734 341.849 44.7734C342.193 44.7734 342.499 44.6582 342.769 44.4277C343.038 44.1973 343.247 43.8691 343.396 43.4434C343.544 43.0176 343.618 42.5273 343.618 41.9727C343.618 41.4102 343.544 40.918 343.396 40.4961C343.247 40.0742 343.04 39.7461 342.775 39.5117C342.509 39.2773 342.2 39.1602 341.849 39.1602Z" fill="#97A6AF"/>
<path d="M258.108 32.3912C258.61 32.3912 258.952 32.1297 259.555 31.5876L263.03 28.504H269.469C272.462 28.504 274.069 26.8467 274.069 23.9033V16.2092C274.069 13.2662 272.462 11.6089 269.469 11.6089H256.531C253.548 11.6089 251.931 13.2563 251.931 16.2092V23.9033C251.931 26.8566 253.548 28.504 256.531 28.504H257.013V31.1153C257.013 31.8889 257.415 32.3912 258.108 32.3912ZM258.52 30.553V27.64C258.52 27.0979 258.319 26.8866 257.767 26.8866H256.541C254.502 26.8866 253.548 25.852 253.548 23.8935V16.2092C253.548 14.2506 254.502 13.2263 256.541 13.2263H269.469C271.498 13.2263 272.452 14.2506 272.452 16.2092V23.8935C272.452 25.852 271.498 26.8866 269.469 26.8866H262.96C262.407 26.8866 262.116 26.9672 261.734 27.3589L258.52 30.553ZM257.887 17.5052H268.113C268.434 17.5052 268.696 17.254 268.696 16.9223C268.696 16.6009 268.434 16.3497 268.113 16.3497H257.887C257.812 16.3488 257.737 16.363 257.667 16.3915C257.597 16.4199 257.533 16.462 257.48 16.5154C257.427 16.5687 257.385 16.6322 257.356 16.7021C257.328 16.772 257.313 16.8469 257.314 16.9223C257.314 17.254 257.566 17.5052 257.887 17.5052ZM257.887 20.7696H268.113C268.434 20.7696 268.696 20.5185 268.696 20.1867C268.696 19.8756 268.434 19.6043 268.113 19.6043H257.887C257.566 19.6043 257.314 19.8756 257.314 20.1872C257.314 20.5185 257.566 20.7696 257.887 20.7696ZM257.887 24.0439H264.537C264.858 24.0439 265.12 23.7932 265.12 23.4717C265.12 23.14 264.858 22.879 264.537 22.879H257.887C257.566 22.879 257.314 23.1405 257.314 23.4717C257.314 23.7932 257.566 24.0439 257.887 24.0439Z" fill="#97A6AF"/>
<path d="M117.893 26.92L120.973 30M120 21.5C120 23.4891 119.21 25.3968 117.803 26.8033C116.397 28.2098 114.489 29 112.5 29C110.511 29 108.603 28.2098 107.197 26.8033C105.79 25.3968 105 23.4891 105 21.5C105 19.5109 105.79 17.6032 107.197 16.1967C108.603 14.7902 110.511 14 112.5 14C114.489 14 116.397 14.7902 117.803 16.1967C119.21 17.6032 120 19.5109 120 21.5Z" stroke="#97A6AF" stroke-width="1.5" stroke-linecap="round" stroke-linejoin="round"/>
<path d="M29.8569 17.4284H48.1426M32.1426 12.8569H45.8569C46.4631 12.8569 47.0445 13.0977 47.4732 13.5264C47.9018 13.9551 48.1426 14.5364 48.1426 15.1426V28.8569C48.1426 29.4631 47.9018 30.0445 47.4732 30.4732C47.0445 30.9018 46.4631 31.1426 45.8569 31.1426H32.1426C31.5364 31.1426 30.9551 30.9018 30.5264 30.4732C30.0977 30.0445 29.8569 29.4631 29.8569 28.8569V15.1426C29.8569 14.5364 30.0977 13.9551 30.5264 13.5264C30.9551 13.0977 31.5364 12.8569 32.1426 12.8569Z" stroke="#97A6AF" stroke-width="1.14286" stroke-linecap="round" stroke-linejoin="round"/>
</svg>
