<svg width="16" height="16" viewBox="0 0 16 16" fill="none" xmlns="http://www.w3.org/2000/svg">
<path d="M8 1.99998C11.8597 1.99998 15 4.243 15 7C15 9.75675 11.8597 12 8 12L7.58575 12.0015C7.311 12.0015 7.13125 11.9943 6.85025 11.9522L6.29 11.8722L5.9305 12.3072C5.76525 12.507 4.922 13.1997 3.99125 13.6457C4.1805 13.1452 4.32 12.5987 4.3325 12.0582L4.3375 12.0285V11.3312L3.79275 11.053C2.01775 10.145 1 8.66798 1 6.99998C1 4.24298 4.14025 1.99998 8 1.99998ZM8 1C3.58125 1 0 3.68648 0 6.99998C0 9.06348 1.22275 10.8617 3.33725 11.9427C3.33725 11.9555 3.33325 11.9647 3.33325 11.979C3.33325 12.8755 2.83075 13.8612 2.53625 14.3687H2.537C2.51375 14.4233 2.5 14.483 2.5 14.547C2.5 14.7983 2.7025 15 2.95325 15C2.991 15 3.051 14.9923 3.073 14.9923C3.07825 14.9923 3.08125 14.9923 3.08075 14.9938C4.64325 14.7385 6.36125 13.358 6.703 12.9415C7.05425 12.9938 7.2915 13.0015 7.5855 13.0015C7.7095 13.0015 7.84325 13 8 13C12.418 13 16 10.314 16 7C16 3.6865 12.418 0.999984 8 1Z" fill="#62747E"/>
</svg>
