<svg width="33" height="33" viewBox="0 0 33 33" fill="none" xmlns="http://www.w3.org/2000/svg">
<path d="M9.48382 30.829C10.036 30.829 10.4231 30.5533 11.0719 29.9451L16.0714 25.3876L25.3939 25.4011C29.5101 25.4153 31.7199 23.1224 31.7199 19.0757V8.49629C31.7199 4.44967 29.5101 2.1709 25.3945 2.1709H7.60518C3.50375 2.1709 1.27979 4.43552 1.27979 8.49629V19.0757C1.27979 23.1359 3.50316 25.4011 7.60518 25.3876H8.25457V29.4065C8.25457 30.2627 8.71009 30.829 9.48382 30.829ZM8.77903 9.90586C8.28227 9.90586 7.89511 9.5187 7.89511 9.00779C7.89511 8.55227 8.28227 8.15156 8.77903 8.15156H24.2342C24.7174 8.15156 25.1182 8.55227 25.1182 9.00779C25.12 9.12505 25.0986 9.24152 25.055 9.3504C25.0114 9.45928 24.9466 9.5584 24.8643 9.64199C24.782 9.72557 24.684 9.79195 24.5758 9.83725C24.4676 9.88255 24.3515 9.90588 24.2342 9.90586H8.77903ZM8.77903 14.85C8.66252 14.8516 8.54686 14.8298 8.4389 14.7859C8.33094 14.7421 8.23287 14.677 8.15047 14.5946C8.06807 14.5122 8.00302 14.4141 7.95916 14.3062C7.9153 14.1982 7.89352 14.0826 7.89511 13.966C7.89728 13.7336 7.99156 13.5115 8.15727 13.3484C8.32297 13.1854 8.54657 13.0947 8.77903 13.0963H24.2342C24.7174 13.0963 25.1182 13.497 25.1182 13.966C25.1182 14.4634 24.7174 14.85 24.2342 14.85H8.77903ZM8.77903 19.8082C8.28227 19.8082 7.89511 19.4075 7.89511 18.9243C7.89511 18.4134 8.28227 18.0404 8.77903 18.0404H18.834C19.3037 18.0404 19.7044 18.4134 19.7044 18.9243C19.7044 19.4075 19.3037 19.8082 18.834 19.8082H8.77903Z" fill="#FF0558"/>
</svg>
