<svg width="35" height="35" viewBox="0 0 35 35" fill="none" xmlns="http://www.w3.org/2000/svg">
<path d="M32.375 16.4822V25.8989C32.375 26.6125 32.0472 27.2968 31.4638 27.8014C30.8803 28.306 30.089 28.5894 29.2639 28.5894H7.48611C6.66099 28.5894 5.86967 28.306 5.28622 27.8014C4.70278 27.2968 4.375 26.6125 4.375 25.8989V16.4822H32.375ZM24.5972 4.375C25.0098 4.375 25.4054 4.51673 25.6972 4.76901C25.9889 5.0213 26.1528 5.36346 26.1528 5.72025V7.06549H29.2639C30.089 7.06549 30.8803 7.34895 31.4638 7.85352C32.0472 8.35808 32.375 9.04242 32.375 9.75598V13.7917H4.375V9.75598C4.375 9.04242 4.70278 8.35808 5.28622 7.85352C5.86967 7.34895 6.66099 7.06549 7.48611 7.06549H10.5972V5.72025C10.5972 5.36346 10.7611 5.0213 11.0528 4.76901C11.3446 4.51673 11.7402 4.375 12.1528 4.375C12.5653 4.375 12.961 4.51673 13.2527 4.76901C13.5444 5.0213 13.7083 5.36346 13.7083 5.72025V7.06549H23.0417V5.72025C23.0417 5.36346 23.2056 5.0213 23.4973 4.76901C23.789 4.51673 24.1847 4.375 24.5972 4.375Z" fill="#FF0558"/>
</svg>
