<svg width="16" height="16" viewBox="0 0 16 16" fill="none" xmlns="http://www.w3.org/2000/svg">
<path d="M4.95736 8.65632C7.01324 8.65632 8.67986 7.02104 8.67986 5.00382C8.67986 2.9866 7.01324 1.35132 4.95736 1.35132C2.90148 1.35132 1.23486 2.9866 1.23486 5.00382C1.23486 7.02104 2.90148 8.65632 4.95736 8.65632Z" fill="#68919A"/>
<path d="M12.0848 8.65632C14.1407 8.65632 15.8073 7.02104 15.8073 5.00382C15.8073 2.9866 14.1407 1.35132 12.0848 1.35132C10.0289 1.35132 8.3623 2.9866 8.3623 5.00382C8.3623 7.02104 10.0289 8.65632 12.0848 8.65632Z" fill="#68919A"/>
<path d="M15.8187 5.35988C15.8187 3.30238 14.1512 1.63363 12.0937 1.63363C11.9762 1.63363 11.8587 1.63988 11.7437 1.65113C11.7074 1.65488 11.6712 1.65988 11.6349 1.66488C11.5562 1.67488 11.4774 1.68613 11.3999 1.70113C11.3599 1.70863 11.3199 1.71738 11.2799 1.72613C11.2049 1.74238 11.1324 1.76113 11.0599 1.78238C11.0237 1.79363 10.9862 1.80238 10.9487 1.81488C10.8624 1.84238 10.7787 1.87363 10.6949 1.90738C10.6749 1.91613 10.6537 1.92238 10.6349 1.92988C10.5349 1.97238 10.4374 2.02113 10.3412 2.07113C10.3087 2.08863 10.2774 2.10738 10.2449 2.12613C10.1431 2.18349 10.0446 2.2465 9.9499 2.31488C9.8949 2.35363 9.8424 2.39363 9.7899 2.43488C9.7549 2.46238 9.7199 2.48988 9.68615 2.51863C9.6324 2.56488 9.5799 2.61238 9.52865 2.66113C9.50115 2.68738 9.47115 2.71363 9.44365 2.73988C9.37115 2.81363 9.30115 2.88988 9.2349 2.96988C9.2074 3.00238 9.1824 3.03738 9.15615 3.07113C9.11615 3.12363 9.07615 3.17488 9.0374 3.22988C9.00865 3.26988 8.9824 3.31113 8.95615 3.35363C8.92365 3.40488 8.8924 3.45488 8.8624 3.50863C8.8374 3.55238 8.8124 3.59738 8.78865 3.64113C8.7599 3.69613 8.73365 3.75363 8.7074 3.80988C8.6874 3.85238 8.66615 3.89613 8.64865 3.93988C8.60865 4.03613 8.5724 4.13238 8.54115 4.23238C8.5399 4.22863 8.53865 4.22613 8.5374 4.22363C8.5074 4.12738 8.4724 4.03363 8.43365 3.94113C8.4149 3.89488 8.3924 3.85113 8.3724 3.80613C8.32702 3.70364 8.27568 3.60388 8.21865 3.50738C8.18865 3.45613 8.15865 3.40488 8.12615 3.35488C8.09865 3.31238 8.0724 3.27113 8.04365 3.22988C8.00615 3.17613 7.96615 3.12488 7.92615 3.07363C7.8999 3.03863 7.87365 3.00363 7.84615 2.96988C7.7799 2.89113 7.7099 2.81363 7.6374 2.73988C7.6099 2.71238 7.5799 2.68613 7.5524 2.65863C7.50115 2.60988 7.4499 2.56238 7.39615 2.51738C7.36115 2.48863 7.32615 2.46113 7.29115 2.43238C7.2399 2.39113 7.18615 2.35238 7.1324 2.31363C7.09615 2.28738 7.0599 2.26238 7.0224 2.23738C6.9624 2.19863 6.90115 2.16113 6.8374 2.12488C6.8049 2.10613 6.7724 2.08613 6.7399 2.06863C6.64464 2.01705 6.54704 1.96991 6.4474 1.92738C6.4274 1.91863 6.40615 1.91238 6.3849 1.90363C6.3024 1.86988 6.2174 1.83863 6.1324 1.81113C6.0949 1.79988 6.05865 1.78863 6.02115 1.77863C5.94865 1.75863 5.87615 1.73863 5.80115 1.72238C5.76115 1.71363 5.72115 1.70488 5.68115 1.69738C5.60365 1.68363 5.5249 1.67113 5.44615 1.66113C5.4099 1.65613 5.37365 1.65113 5.3374 1.64738C5.2224 1.63613 5.10615 1.62988 4.9874 1.62988C2.9299 1.62988 1.2624 3.29863 1.2624 5.35613C1.2624 6.84238 2.1349 8.12238 3.39365 8.71988C3.30816 8.77651 3.23798 8.85338 3.18935 8.94366C3.14072 9.03394 3.11515 9.13484 3.1149 9.23738V9.77863L0.607402 8.54488C0.373652 8.54488 0.181152 8.78613 0.181152 9.08238V13.2174C0.181152 13.5124 0.373652 13.7536 0.607402 13.7536L3.1174 12.5161V14.0249C3.1174 14.3674 3.3974 14.6461 3.73865 14.6461H13.6924C14.0349 14.6461 14.3137 14.3661 14.3137 14.0249V9.23988C14.3137 8.95363 14.1162 8.71363 13.8524 8.64238C15.0224 8.01363 15.8187 6.77988 15.8187 5.35988ZM4.9899 6.26238C4.49115 6.26238 4.08865 5.85863 4.08865 5.35988C4.08865 4.86113 4.4924 4.45738 4.9899 4.45738C5.48865 4.45738 5.8924 4.86113 5.8924 5.35988C5.8924 5.85738 5.48865 6.26238 4.9899 6.26238ZM6.79365 8.61863C6.8099 8.60988 6.8249 8.59988 6.8399 8.58988C6.9024 8.55363 6.9649 8.51738 7.0249 8.47738C7.0624 8.45363 7.09865 8.42863 7.1349 8.40238C7.18865 8.36363 7.24115 8.32488 7.29365 8.28363C7.3299 8.25613 7.3649 8.22863 7.39865 8.19988C7.45115 8.15363 7.50365 8.10613 7.5549 8.05738C7.58365 8.03113 7.61365 8.00488 7.6399 7.97613C7.7124 7.90238 7.7824 7.82613 7.84865 7.74738C7.87615 7.71363 7.9024 7.67863 7.92865 7.64363C7.96865 7.59238 8.00865 7.54113 8.04615 7.48738C8.0749 7.44613 8.10115 7.40363 8.12865 7.36113C8.1599 7.31238 8.19115 7.26113 8.22115 7.20988C8.2474 7.16488 8.2724 7.11988 8.29615 7.07363C8.3249 7.02113 8.3499 6.96613 8.3749 6.91113C8.39615 6.86613 8.4174 6.82113 8.43615 6.77488C8.4749 6.68363 8.50865 6.58863 8.5399 6.49363C8.54115 6.49113 8.5424 6.48738 8.54365 6.48488C8.5749 6.58363 8.61115 6.68238 8.65115 6.77738C8.66865 6.82113 8.6899 6.86363 8.7099 6.90738C8.73615 6.96363 8.7624 7.01988 8.79115 7.07488C8.81365 7.11988 8.83865 7.16363 8.8649 7.20863C8.8949 7.26113 8.92615 7.31113 8.95865 7.36238C8.9849 7.40363 9.0124 7.44613 9.0399 7.48613C9.0774 7.53988 9.1174 7.59238 9.15865 7.64488C9.1849 7.67863 9.2099 7.71363 9.2374 7.74488C9.30365 7.82488 9.37365 7.90113 9.44615 7.97488C9.47365 8.00238 9.5024 8.02738 9.53115 8.05363C9.5824 8.10363 9.6349 8.15113 9.68865 8.19613C9.7224 8.22488 9.7574 8.25238 9.7924 8.27988C9.8449 8.32113 9.8974 8.36113 9.9524 8.39988C9.98865 8.42488 10.0237 8.44988 10.0612 8.47488C10.1224 8.51488 10.1837 8.55113 10.2474 8.58738C10.2624 8.59613 10.2774 8.60613 10.2924 8.61488H6.79365V8.61863ZM12.0924 6.26238C11.5937 6.26238 11.1899 5.85863 11.1899 5.35988C11.1899 4.86113 11.5937 4.45738 12.0924 4.45738C12.5912 4.45738 12.9949 4.86113 12.9949 5.35988C12.9949 5.85738 12.5912 6.26238 12.0924 6.26238Z" fill="#2F2F2F"/>
<path d="M0.990234 13.5661L2.25898 12.9411V9.35864L0.990234 8.73364V13.5661Z" fill="#68919A"/>
<path d="M4.98398 6.38496C5.56733 6.38496 6.04023 5.91206 6.04023 5.32871C6.04023 4.74536 5.56733 4.27246 4.98398 4.27246C4.40063 4.27246 3.92773 4.74536 3.92773 5.32871C3.92773 5.91206 4.40063 6.38496 4.98398 6.38496Z" fill="#68919A"/>
<path d="M12.1124 6.38496C12.6958 6.38496 13.1687 5.91206 13.1687 5.32871C13.1687 4.74536 12.6958 4.27246 12.1124 4.27246C11.5291 4.27246 11.0562 4.74536 11.0562 5.32871C11.0562 5.91206 11.5291 6.38496 12.1124 6.38496Z" fill="#68919A"/>
</svg>
