<svg width="30" height="30" viewBox="0 0 30 30" fill="none" xmlns="http://www.w3.org/2000/svg">
<path opacity="0.7" d="M2 9C2 6.79086 3.79086 5 6 5H23C25.2091 5 27 6.79086 27 9V21C27 23.2091 25.2091 25 23 25H6C3.79086 25 2 23.2091 2 21V9Z" fill="black"/>
<path d="M7.26953 19V18.2188H8.91992C9.49284 18.2188 9.96973 18.1081 10.3506 17.8867C10.7314 17.6654 11.0163 17.3496 11.2051 16.9395C11.3939 16.5293 11.4883 16.0345 11.4883 15.4551C11.4883 14.8822 11.3955 14.3906 11.21 13.9805C11.0244 13.5703 10.7477 13.2562 10.3799 13.0381C10.012 12.82 9.55469 12.7109 9.00781 12.7109H7.23047V11.9297H9.06641C9.75 11.9297 10.3376 12.0697 10.8291 12.3496C11.3206 12.6296 11.6966 13.0348 11.957 13.5654C12.2174 14.096 12.3477 14.7259 12.3477 15.4551C12.3477 16.1908 12.2158 16.8239 11.9521 17.3545C11.6885 17.8851 11.3044 18.292 10.7998 18.5752C10.2952 18.8584 9.68815 19 8.97852 19H7.26953ZM7.66016 19H6.78125V11.9297H7.66016V19Z" fill="#FEFFFF"/>
<path d="M17.6543 18.3555L20.0664 15.8164C20.3854 15.4779 20.6296 15.2061 20.7988 15.001C20.9681 14.7959 21.0951 14.5957 21.1797 14.4004C21.2643 14.2051 21.3066 14.0033 21.3066 13.7949C21.3066 13.5605 21.2448 13.3522 21.1211 13.1699C20.9974 12.9876 20.8298 12.846 20.6182 12.7451C20.4066 12.6442 20.1673 12.5938 19.9004 12.5938C19.627 12.5938 19.3861 12.6491 19.1777 12.7598C18.9694 12.8704 18.8083 13.0267 18.6943 13.2285C18.5804 13.4303 18.5234 13.6615 18.5234 13.9219H17.6934C17.6934 13.5117 17.7894 13.1488 17.9814 12.833C18.1735 12.5173 18.4404 12.2715 18.7822 12.0957C19.124 11.9199 19.5065 11.832 19.9297 11.832C20.3529 11.832 20.7305 11.9183 21.0625 12.0908C21.3945 12.2633 21.6549 12.4993 21.8438 12.7988C22.0326 13.0983 22.127 13.4303 22.127 13.7949C22.127 14.0618 22.0781 14.319 21.9805 14.5664C21.8828 14.8138 21.7201 15.0856 21.4922 15.3818C21.2643 15.6781 20.9355 16.0475 20.5059 16.4902L18.8848 18.1602V18.2188H22.2539V19H17.6641L17.6543 18.3555Z" fill="#FEFFFF"/>
<rect x="16" y="15" width="1" height="2" transform="rotate(90 16 15)" fill="#FEFFFF"/>
</svg>
