<svg width="20" height="20" viewBox="0 0 20 20" fill="none" xmlns="http://www.w3.org/2000/svg">
<path d="M3.43644 16C3.02696 16 2.68533 15.868 2.41156 15.604C2.13778 15.34 2.00059 15.0103 2 14.6149V5.38514C2 4.99029 2.13719 4.66086 2.41156 4.39686C2.68593 4.13286 3.02726 4.00057 3.43556 4H16.5644C16.9733 4 17.3147 4.13229 17.5884 4.39686C17.8622 4.66143 17.9994 4.99086 18 5.38514V14.6157C18 15.01 17.8628 15.3394 17.5884 15.604C17.3141 15.8686 16.9727 16.0006 16.5644 16H3.43644ZM10 10.0994L2.88889 5.61571V14.6157C2.88889 14.7694 2.94015 14.8957 3.04267 14.9946C3.14519 15.0934 3.27644 15.1429 3.43644 15.1429H16.5644C16.7239 15.1429 16.8548 15.0934 16.9573 14.9946C17.0599 14.8957 17.1111 14.7691 17.1111 14.6149V5.61486L10 10.0994ZM10 9.14286L16.8373 4.85714H3.16267L10 9.14286ZM2.88889 5.61571V4.85714V14.6157C2.88889 14.7694 2.94015 14.8957 3.04267 14.9946C3.14519 15.0934 3.27644 15.1429 3.43644 15.1429H2.88889V5.61571Z" fill="#B4BFC5"/>
</svg>
