<svg width="90" height="90" viewBox="0 0 90 90" fill="none" xmlns="http://www.w3.org/2000/svg">
<circle cx="44.5" cy="44.5" r="43" fill="#F5F5F5" stroke="#D1D8DB"/>
<g clip-path="url(#clip0_498_2176)">
<path d="M67.625 43.8125H70V60.4844H67.625V43.8125ZM65.2344 60.4844H67.625V62.8594H65.2344V60.4844ZM65.2344 39.0469H67.625V43.8125H65.2344V39.0469ZM62.8594 62.8594H65.2344V65.25H62.8594V62.8594ZM62.8594 34.2969H65.2344V39.0469H62.8594V34.2969ZM60.4844 65.25H62.8594V67.625H60.4844V65.25ZM60.4844 31.9062H62.8594V34.2969H60.4844V31.9062ZM58.0937 24.7656H60.4844V31.9062H58.0937V24.7656ZM46.1875 67.625V65.25H50.9531V62.8594H43.8125V65.25H31.9062V67.625H43.8125V70H60.4844V67.625H46.1875ZM55.7188 22.3906H58.0937V24.7656H55.7188V22.3906ZM50.9531 43.8125H55.7188V46.1875H50.9531V43.8125ZM50.9531 60.4844H53.3438V62.8594H50.9531V60.4844ZM48.5781 20H55.7188V22.3906H48.5781V20ZM48.5781 58.0937H50.9531V60.4844H48.5781V58.0937ZM48.5781 46.1875H50.9531V48.5781H48.5781V46.1875ZM48.5781 24.7656H53.3438V29.5312H48.5781V24.7656Z" fill="#4B5A62"/>
<path d="M46.1875 48.5781H48.5781V58.0937H46.1875V48.5781ZM46.1875 22.3906H48.5781V24.7656H46.1875V22.3906ZM43.8125 24.7656H46.1875V29.5312H43.8125V24.7656ZM41.4375 60.4844H43.8125V62.8594H41.4375V60.4844ZM39.0469 53.3438H41.4375V60.4844H39.0469V53.3438ZM39.0469 29.5312H43.8125V31.9062H39.0469V29.5312ZM36.6719 50.9531H39.0469V53.3438H36.6719V50.9531ZM36.6719 34.2969H39.0469V36.6719H36.6719V34.2969ZM36.6719 24.7656H39.0469V29.5312H36.6719V24.7656ZM34.2969 22.3906H36.6719V24.7656H34.2969V22.3906ZM29.5313 36.6719H36.6719V39.0469H29.5313V36.6719ZM29.5313 62.8594H31.9063V65.25H29.5313V62.8594ZM27.1406 20H34.2969V22.3906H27.1406V20ZM22.3906 67.625V65.25H20V70H31.9063V67.625H22.3906ZM24.7656 48.5781H36.6719V50.9531H24.7656V48.5781ZM27.1406 24.7656H31.9063V29.5312H27.1406V24.7656ZM27.1406 62.8594H29.5313V60.4844H24.7656V62.8594H22.3906V65.25H27.1406V62.8594ZM24.7656 31.9062H27.1406V36.6719H24.7656V31.9062ZM24.7656 22.3906H27.1406V24.7656H24.7656V22.3906ZM22.3906 58.0937H24.7656V60.4844H22.3906V58.0937ZM22.3906 36.6719H24.7656V41.4375H22.3906V36.6719ZM22.3906 24.7656H24.7656V31.9062H22.3906V24.7656ZM24.7656 53.3438V50.9531H22.3906V41.4375H20V58.0937H22.3906V53.3438H24.7656Z" fill="#4B5A62"/>
</g>
<defs>
<clipPath id="clip0_498_2176">
<rect width="50" height="50" fill="white" transform="translate(20 20)"/>
</clipPath>
</defs>
</svg>
