<svg width="20" height="20" viewBox="0 0 20 20" fill="none" xmlns="http://www.w3.org/2000/svg">
<path d="M10 7.9C9.34901 7.9 8.72469 8.17393 8.26437 8.66152C7.80406 9.14912 7.54545 9.81044 7.54545 10.5C7.54545 11.1896 7.80406 11.8509 8.26437 12.3385C8.72469 12.8261 9.34901 13.1 10 13.1C10.651 13.1 11.2753 12.8261 11.7356 12.3385C12.1959 11.8509 12.4545 11.1896 12.4545 10.5C12.4545 9.81044 12.1959 9.14912 11.7356 8.66152C11.2753 8.17393 10.651 7.9 10 7.9ZM10 14.8333C8.91502 14.8333 7.87448 14.3768 7.10729 13.5641C6.3401 12.7515 5.90909 11.6493 5.90909 10.5C5.90909 9.35073 6.3401 8.24853 7.10729 7.43587C7.87448 6.62321 8.91502 6.16667 10 6.16667C11.085 6.16667 12.1255 6.62321 12.8927 7.43587C13.6599 8.24853 14.0909 9.35073 14.0909 10.5C14.0909 11.6493 13.6599 12.7515 12.8927 13.5641C12.1255 14.3768 11.085 14.8333 10 14.8333ZM10 4C5.90909 4 2.41545 6.69533 1 10.5C2.41545 14.3047 5.90909 17 10 17C14.0909 17 17.5845 14.3047 19 10.5C17.5845 6.69533 14.0909 4 10 4Z" fill="#D1D8DB"/>
</svg>
