<svg width="24" height="24" viewBox="0 0 24 24" fill="none" xmlns="http://www.w3.org/2000/svg">
<path d="M12.5927 23.2574L12.5817 23.2595L12.5107 23.2945L12.4907 23.2985L12.4767 23.2945L12.4057 23.2595C12.395 23.2561 12.387 23.2578 12.3817 23.2644L12.3777 23.2745L12.3607 23.7024L12.3657 23.7224L12.3757 23.7355L12.4797 23.8094L12.4947 23.8134L12.5067 23.8094L12.6107 23.7355L12.6227 23.7194L12.6267 23.7024L12.6097 23.2754C12.607 23.2648 12.6014 23.2588 12.5927 23.2574ZM12.8577 23.1445L12.8447 23.1464L12.6597 23.2395L12.6497 23.2495L12.6467 23.2605L12.6647 23.6905L12.6697 23.7024L12.6777 23.7094L12.8787 23.8024C12.8913 23.8058 12.901 23.8031 12.9077 23.7945L12.9117 23.7805L12.8777 23.1665C12.8744 23.1545 12.8677 23.1471 12.8577 23.1445ZM12.1427 23.1464C12.1383 23.1438 12.133 23.1429 12.128 23.144C12.1229 23.1451 12.1185 23.1482 12.1157 23.1525L12.1097 23.1665L12.0757 23.7805C12.0764 23.7925 12.082 23.8005 12.0927 23.8045L12.1077 23.8024L12.3087 23.7094L12.3187 23.7015L12.3227 23.6905L12.3397 23.2605L12.3367 23.2485L12.3267 23.2385L12.1427 23.1464Z" fill="#B4BFC5"/>
<path d="M3.0498 9.30971C3.00729 9.18276 2.9907 9.04858 3.00102 8.9151C3.01134 8.78163 3.04836 8.65158 3.10987 8.53268C3.17139 8.41378 3.25615 8.30844 3.35914 8.2229C3.46213 8.13737 3.58124 8.07339 3.70941 8.03475C3.83759 7.99611 3.97222 7.9836 4.10532 7.99796C4.23842 8.01232 4.36728 8.05326 4.48427 8.11835C4.60125 8.18344 4.70397 8.27136 4.78634 8.37689C4.86871 8.48242 4.92906 8.60342 4.9638 8.73271C7.0498 15.7187 16.9458 15.7197 19.0338 8.73671C19.0712 8.61077 19.1331 8.49344 19.2159 8.39141C19.2986 8.28938 19.4007 8.20465 19.5162 8.14207C19.6317 8.07948 19.7584 8.04026 19.8891 8.02664C20.0198 8.01303 20.1519 8.02528 20.2778 8.06271C20.4037 8.10013 20.5211 8.162 20.6231 8.24477C20.7251 8.32755 20.8098 8.4296 20.8724 8.54512C20.935 8.66063 20.9742 8.78735 20.9879 8.91802C21.0015 9.04869 20.9892 9.18077 20.9518 9.30671C20.5882 10.558 19.9711 11.7211 19.1388 12.7237L20.4138 13.9997C20.596 14.1883 20.6967 14.4409 20.6945 14.7031C20.6922 14.9653 20.587 15.2161 20.4016 15.4015C20.2162 15.5869 19.9654 15.6921 19.7032 15.6944C19.441 15.6967 19.1884 15.5959 18.9998 15.4137L17.6888 14.1027C16.9814 14.6364 16.1998 15.0639 15.3688 15.3717L15.7258 16.7067C15.7639 16.8348 15.7759 16.9691 15.7612 17.1019C15.7465 17.2347 15.7053 17.3632 15.6401 17.4798C15.5749 17.5964 15.487 17.6988 15.3816 17.7808C15.2762 17.8629 15.1554 17.923 15.0264 17.9576C14.8974 17.9922 14.7627 18.0007 14.6304 17.9824C14.498 17.9641 14.3707 17.9194 14.2559 17.8511C14.1411 17.7828 14.0411 17.6922 13.9619 17.5846C13.8827 17.477 13.8259 17.3546 13.7948 17.2247L13.4308 15.8677C12.4838 16.0077 11.5158 16.0077 10.5688 15.8677L10.2048 17.2247C10.1737 17.3546 10.1168 17.477 10.0376 17.5846C9.95845 17.6922 9.8585 17.7828 9.7437 17.8511C9.6289 17.9194 9.50157 17.9641 9.36923 17.9824C9.2369 18.0007 9.10224 17.9922 8.97321 17.9576C8.84418 17.923 8.72339 17.8629 8.61797 17.7808C8.51256 17.6988 8.42466 17.5964 8.35947 17.4798C8.29427 17.3632 8.2531 17.2347 8.23839 17.1019C8.22367 16.9691 8.23571 16.8348 8.2738 16.7067L8.6308 15.3717C7.79974 15.0636 7.01815 14.6358 6.3108 14.1017L5.0008 15.4137C4.81329 15.6015 4.55887 15.7071 4.2935 15.7073C4.02814 15.7075 3.77357 15.6022 3.5858 15.4147C3.39802 15.2272 3.29243 14.9728 3.29224 14.7074C3.29205 14.4421 3.39729 14.1875 3.5848 13.9997L4.8598 12.7247C4.0758 11.7887 3.4498 10.6507 3.0478 9.31071L3.0498 9.30971Z" fill="#B4BFC5"/>
</svg>
