<svg width="346" height="42" viewBox="0 0 346 42" fill="none" xmlns="http://www.w3.org/2000/svg">
<rect x="0.25" y="0.25" width="345.5" height="41.5" rx="4.25" fill="#FEFFFF" stroke="#B4BFC5" stroke-width="0.5"/>
<path d="M144.844 17.7246H138.082V16.541H144.844V17.7246ZM146.701 22.2832H136.975V21.0762H146.701V22.2832ZM142.535 26.5898H141.035V21.9141H142.535V26.5898ZM145.559 17.4902C145.559 18.0293 145.551 18.4863 145.535 18.8613C145.524 19.2363 145.485 19.6738 145.418 20.1738C145.356 20.6699 145.26 21.2109 145.131 21.7969L143.654 21.6328C143.783 21.0781 143.877 20.5605 143.936 20.0801C143.998 19.5957 144.035 19.168 144.047 18.7969C144.059 18.4258 144.065 17.9922 144.065 17.4961V16.541H145.559V17.4902ZM155.116 17.5312H148.295V16.3477H155.116V17.5312ZM156.856 20.8594H147.106V19.6875H156.856V20.8594ZM155.702 17.0742C155.702 17.6133 155.686 18.1055 155.655 18.5508C155.623 18.9922 155.545 19.4883 155.42 20.0391L153.944 19.8984C154.061 19.3633 154.133 18.8926 154.161 18.4863C154.192 18.0762 154.209 17.6055 154.213 17.0742V16.3477H155.702V17.0742ZM155.661 24.5918H149.702V25.7109H148.207V23.4727H154.178V22.7637H148.202V21.6152H155.661V24.5918ZM155.942 26.4961H148.207V25.3418H155.942V26.4961ZM166.987 25.3945H157.237V24.1699H166.987V25.3945ZM162.827 24.6797H161.356V22.1484H162.827V24.6797ZM165.862 20.1387H159.85V21.9609H158.362V18.9668H164.385V17.8066H158.344V16.6055H165.862V20.1387ZM166.114 22.5527H158.362V21.3398H166.114V22.5527ZM176.239 19.9395H174.048V18.7266H176.239V19.9395ZM176.204 22.5938H173.995V21.3867H176.204V22.5938ZM179.14 26.5781H177.734V15.9023H179.14V26.5781ZM176.913 26.1094H175.501V16.1543H176.913V26.1094ZM174.54 17.1797C174.54 18.2305 174.415 19.1855 174.165 20.0449C173.915 20.9043 173.501 21.6953 172.923 22.418C172.349 23.1367 171.579 23.7832 170.614 24.3574L169.735 23.3086C170.548 22.8281 171.198 22.3027 171.687 21.7324C172.179 21.1582 172.536 20.5254 172.759 19.834C172.985 19.1426 173.099 18.3594 173.099 17.4844V17.1797H174.54ZM173.597 18.3809H170.357V17.1797H173.597V18.3809ZM189.763 22.2949H180.036V21.0996H189.763V22.2949ZM185.62 21.6152H184.138V19.6934H185.62V21.6152ZM185.386 16.4414C185.386 17.0977 185.212 17.6953 184.865 18.2344C184.521 18.7695 184.023 19.2188 183.37 19.582C182.722 19.9453 181.954 20.1934 181.068 20.3262L180.529 19.1543C181.294 19.0605 181.947 18.877 182.486 18.6035C183.029 18.3262 183.435 18 183.704 17.625C183.978 17.2461 184.115 16.8516 184.115 16.4414V16.0898H185.386V16.4414ZM185.638 16.4414C185.638 16.8711 185.773 17.2734 186.042 17.6484C186.316 18.0195 186.724 18.3398 187.267 18.6094C187.81 18.8789 188.468 19.0605 189.242 19.1543L188.661 20.3262C187.771 20.1934 187.001 19.9473 186.353 19.5879C185.708 19.2285 185.214 18.7793 184.87 18.2402C184.531 17.7012 184.361 17.1016 184.361 16.4414V16.0898H185.638V16.4414ZM188.574 26.5781H187.085V24.2109H181.109V23.0508H188.574V26.5781ZM198.576 26.5781H197.099V15.9023H198.576V26.5781ZM200.158 21.3164H198.248V20.0918H200.158V21.3164ZM196.373 18.7031H190.109V17.502H196.373V18.7031ZM193.267 19.2949C193.787 19.2949 194.254 19.4043 194.668 19.623C195.082 19.8379 195.406 20.1387 195.64 20.5254C195.879 20.9121 195.998 21.3496 195.998 21.8379C195.998 22.3262 195.879 22.7637 195.64 23.1504C195.406 23.5371 195.082 23.8398 194.668 24.0586C194.254 24.2734 193.787 24.3809 193.267 24.3809C192.748 24.3809 192.281 24.2734 191.867 24.0586C191.453 23.8398 191.129 23.5371 190.894 23.1504C190.66 22.7637 190.543 22.3262 190.543 21.8379C190.543 21.3496 190.66 20.9121 190.894 20.5254C191.129 20.1387 191.453 19.8379 191.867 19.623C192.281 19.4043 192.748 19.2949 193.267 19.2949ZM193.267 20.5137C193.021 20.5137 192.798 20.5684 192.599 20.6777C192.404 20.7832 192.25 20.9375 192.136 21.1406C192.027 21.3398 191.972 21.5723 191.972 21.8379C191.972 22.1074 192.027 22.3418 192.136 22.541C192.25 22.7402 192.404 22.8945 192.599 23.0039C192.798 23.1094 193.021 23.1621 193.267 23.1621C193.521 23.1621 193.746 23.1094 193.941 23.0039C194.136 22.8945 194.287 22.7402 194.392 22.541C194.502 22.3418 194.556 22.1074 194.556 21.8379C194.556 21.5723 194.502 21.3398 194.392 21.1406C194.287 20.9375 194.136 20.7832 193.941 20.6777C193.746 20.5684 193.521 20.5137 193.267 20.5137ZM194.011 17.959H192.523V16.0723H194.011V17.959ZM209.258 26.5781H207.74V15.9023H209.258V26.5781ZM206.064 17.0273C206.064 18.1719 205.91 19.2109 205.601 20.1445C205.297 21.0742 204.779 21.9297 204.049 22.7109C203.318 23.4883 202.34 24.168 201.113 24.75L200.328 23.5547C201.355 23.0703 202.18 22.5254 202.801 21.9199C203.422 21.3145 203.873 20.6348 204.154 19.8809C204.435 19.127 204.576 18.2637 204.576 17.291V17.0273H206.064ZM205.262 18.2051H200.896V17.0273H205.262V18.2051Z" fill="black"/>
<path d="M26.3444 19.9332H25.7V19.9H18.5V23.1H23.0212C22.3616 24.9628 20.5892 26.3 18.5 26.3C15.8492 26.3 13.7 24.1508 13.7 21.5C13.7 18.8492 15.8492 16.7 18.5 16.7C19.7236 16.7 20.8368 17.1616 21.6844 17.9156L23.9472 15.6528C22.5184 14.3212 20.6072 13.5 18.5 13.5C14.082 13.5 10.5 17.082 10.5 21.5C10.5 25.918 14.082 29.5 18.5 29.5C22.918 29.5 26.5 25.918 26.5 21.5C26.5 20.9636 26.4448 20.44 26.3444 19.9332Z" fill="#FFC107"/>
<path d="M11.4224 17.7764L14.0508 19.704C14.762 17.9432 16.4844 16.7 18.5 16.7C19.7236 16.7 20.8368 17.1616 21.6844 17.9156L23.9472 15.6528C22.5184 14.3212 20.6072 13.5 18.5 13.5C15.4272 13.5 12.7624 15.2348 11.4224 17.7764Z" fill="#FF3D00"/>
<path d="M18.4999 29.5C20.5663 29.5 22.4439 28.7092 23.8635 27.4232L21.3875 25.328C20.5575 25.9596 19.543 26.3011 18.4999 26.3C16.4191 26.3 14.6523 24.9732 13.9867 23.1216L11.3779 25.1316C12.7019 27.7224 15.3907 29.5 18.4999 29.5Z" fill="#4CAF50"/>
<path d="M26.3444 19.9332H25.7V19.9H18.5V23.1H23.0212C22.7057 23.9866 22.1373 24.7613 21.3864 25.3284L21.3876 25.3276L23.8636 27.4228C23.6884 27.582 26.5 25.5 26.5 21.5C26.5 20.9636 26.4448 20.44 26.3444 19.9332Z" fill="#1976D2"/>
</svg>
