<svg width="282" height="77" viewBox="0 0 282 77" fill="none" xmlns="http://www.w3.org/2000/svg">
<path d="M255 21C255 18.7909 256.791 17 259 17H278C280.209 17 282 18.7909 282 21V77H255V21Z" fill="#FF0558"/>
<path d="M141 45C141 42.7909 142.791 41 145 41H164C166.209 41 168 42.7909 168 45V77H141V45Z" fill="#FF9EBE"/>
<path d="M84 73C84 70.7909 85.7909 69 88 69H107C109.209 69 111 70.7909 111 73V77H84V73Z" fill="#FF9EBE"/>
<path d="M28 77C28 75.3431 29.3431 74 31 74H52C53.6569 74 55 75.3431 55 77H28Z" fill="#FF9EBE"/>
<path d="M0 77C0 76.4477 0.447715 76 1 76H26C26.5523 76 27 76.4477 27 77H0Z" fill="#FF9EBE"/>
<path d="M56 77C56 76.4477 56.4477 76 57 76H82C82.5523 76 83 76.4477 83 77H56Z" fill="#FF9EBE"/>
<path d="M112 77C112 75.3431 113.343 74 115 74H136C137.657 74 139 75.3431 139 77H112Z" fill="#FF9EBE"/>
<path d="M198 27C198 24.7909 199.791 23 202 23H221C223.209 23 225 24.7909 225 27V77H198V27Z" fill="#FF9EBE"/>
<path d="M169 70C169 67.7909 170.791 66 173 66H192C194.209 66 196 67.7909 196 70V77H169V70Z" fill="#FF9EBE"/>
<path d="M226 75C226 72.7909 227.791 71 230 71H249C251.209 71 253 72.7909 253 75V77H226V75Z" fill="#FF9EBE"/>
<path d="M10.1424 70.0977C9.62155 70.0977 9.17721 69.9561 8.80937 69.6729C8.44154 69.3896 8.15996 68.9762 7.96465 68.4326C7.76934 67.889 7.67168 67.2331 7.67168 66.4648C7.67168 65.7031 7.76934 65.0505 7.96465 64.5068C8.15996 63.9632 8.44316 63.5482 8.81426 63.2617C9.18535 62.9753 9.62806 62.832 10.1424 62.832C10.6567 62.832 11.0994 62.9753 11.4705 63.2617C11.8416 63.5482 12.1248 63.9632 12.3201 64.5068C12.5154 65.0505 12.6131 65.7031 12.6131 66.4648C12.6131 67.2331 12.5171 67.889 12.325 68.4326C12.1329 68.9762 11.8514 69.3896 11.4803 69.6729C11.1092 69.9561 10.6632 70.0977 10.1424 70.0977ZM10.1424 69.3164C10.4809 69.3164 10.7706 69.2057 11.0115 68.9844C11.2524 68.763 11.4363 68.4391 11.5633 68.0127C11.6902 67.5863 11.7537 67.0703 11.7537 66.4648C11.7537 65.8594 11.6902 65.3418 11.5633 64.9121C11.4363 64.4824 11.2524 64.1553 11.0115 63.9307C10.7706 63.7061 10.4809 63.5938 10.1424 63.5938C9.80384 63.5938 9.51413 63.7061 9.27324 63.9307C9.03236 64.1553 8.84681 64.4824 8.7166 64.9121C8.58639 65.3418 8.52129 65.8594 8.52129 66.4648C8.52129 67.0703 8.58477 67.5863 8.71172 68.0127C8.83867 68.4391 9.02422 68.763 9.26836 68.9844C9.5125 69.2057 9.80384 69.3164 10.1424 69.3164ZM13.9365 70.0586C13.8258 70.0586 13.7217 70.0293 13.624 69.9707C13.5264 69.9121 13.4499 69.834 13.3945 69.7363C13.3392 69.6387 13.3115 69.5345 13.3115 69.4238C13.3115 69.3132 13.3392 69.209 13.3945 69.1113C13.4499 69.0137 13.5264 68.9372 13.624 68.8818C13.7217 68.8265 13.8258 68.7988 13.9365 68.7988C14.0472 68.7988 14.1514 68.8265 14.249 68.8818C14.3467 68.9372 14.4232 69.0137 14.4785 69.1113C14.5339 69.209 14.5615 69.3132 14.5615 69.4238C14.5615 69.5345 14.5339 69.6387 14.4785 69.7363C14.4232 69.834 14.3467 69.9121 14.249 69.9707C14.1514 70.0293 14.0472 70.0586 13.9365 70.0586ZM17.8381 70.0977C17.4214 70.0977 17.0406 70.0163 16.6955 69.8535C16.3505 69.6908 16.077 69.4678 15.8752 69.1846C15.6734 68.9014 15.5627 68.5807 15.5432 68.2227H16.3928C16.4188 68.431 16.4986 68.6182 16.632 68.7842C16.7655 68.9502 16.938 69.082 17.1496 69.1797C17.3612 69.2773 17.5907 69.3262 17.8381 69.3262C18.1376 69.3262 18.4077 69.2578 18.6486 69.1211C18.8895 68.9844 19.0783 68.7972 19.215 68.5596C19.3518 68.3219 19.4201 68.0566 19.4201 67.7637C19.4201 67.4577 19.3501 67.1842 19.2102 66.9434C19.0702 66.7025 18.8749 66.512 18.6242 66.3721C18.3736 66.2321 18.092 66.1621 17.7795 66.1621C17.4735 66.1556 17.2098 66.2028 16.9885 66.3037C16.7671 66.4046 16.5913 66.569 16.4611 66.7969H15.6115L16.1096 62.9297H19.9377V63.7109H16.842L16.5783 65.7812H16.6467C16.8094 65.6576 17.0048 65.5583 17.2326 65.4834C17.4605 65.4085 17.6949 65.3711 17.9357 65.3711C18.3785 65.3711 18.7788 65.472 19.1369 65.6738C19.495 65.8757 19.7749 66.1572 19.9768 66.5186C20.1786 66.8799 20.2795 67.2884 20.2795 67.7441C20.2795 68.1934 20.1737 68.597 19.9621 68.9551C19.7505 69.3132 19.4592 69.5931 19.0881 69.7949C18.717 69.9967 18.3003 70.0977 17.8381 70.0977Z" fill="#97A6AF"/>
<path d="M268.985 10.0977C268.569 10.0977 268.188 10.0163 267.843 9.85352C267.498 9.69076 267.224 9.46777 267.022 9.18457C266.821 8.90137 266.71 8.58073 266.69 8.22266H267.54C267.566 8.43099 267.646 8.61816 267.779 8.78418C267.913 8.9502 268.085 9.08203 268.297 9.17969C268.508 9.27734 268.738 9.32617 268.985 9.32617C269.285 9.32617 269.555 9.25781 269.796 9.12109C270.037 8.98438 270.226 8.7972 270.362 8.55957C270.499 8.32194 270.567 8.05664 270.567 7.76367C270.567 7.45768 270.497 7.18424 270.357 6.94336C270.217 6.70247 270.022 6.51204 269.771 6.37207C269.521 6.2321 269.239 6.16211 268.927 6.16211C268.621 6.1556 268.357 6.2028 268.136 6.30371C267.914 6.40462 267.739 6.56901 267.608 6.79688H266.759L267.257 2.92969H271.085V3.71094H267.989L267.726 5.78125H267.794C267.957 5.65755 268.152 5.55827 268.38 5.4834C268.608 5.40853 268.842 5.37109 269.083 5.37109C269.526 5.37109 269.926 5.47201 270.284 5.67383C270.642 5.87565 270.922 6.15723 271.124 6.51855C271.326 6.87988 271.427 7.28841 271.427 7.74414C271.427 8.19336 271.321 8.59701 271.109 8.95508C270.898 9.31315 270.606 9.5931 270.235 9.79492C269.864 9.99674 269.448 10.0977 268.985 10.0977Z" fill="#FF0558"/>
</svg>
