<svg width="26" height="26" viewBox="0 0 26 26" fill="none" xmlns="http://www.w3.org/2000/svg">
<path d="M21.6668 20.5837V11.3753C21.6668 11.2071 21.6277 11.0413 21.5525 10.8908C21.4772 10.7404 21.368 10.6096 21.2335 10.5087L13.6502 4.82116C13.4626 4.68052 13.2346 4.60449 13.0002 4.60449C12.7658 4.60449 12.5377 4.68052 12.3502 4.82116L4.76683 10.5087C4.63228 10.6096 4.52308 10.7404 4.44787 10.8908C4.37265 11.0413 4.3335 11.2071 4.3335 11.3753V20.5837C4.3335 20.871 4.44763 21.1465 4.6508 21.3497C4.85396 21.5529 5.12951 21.667 5.41683 21.667H9.75016C10.0375 21.667 10.313 21.5529 10.5162 21.3497C10.7194 21.1465 10.8335 20.871 10.8335 20.5837V17.3337C10.8335 17.0463 10.9476 16.7708 11.1508 16.5676C11.354 16.3645 11.6295 16.2503 11.9168 16.2503H14.0835C14.3708 16.2503 14.6464 16.3645 14.8495 16.5676C15.0527 16.7708 15.1668 17.0463 15.1668 17.3337V20.5837C15.1668 20.871 15.281 21.1465 15.4841 21.3497C15.6873 21.5529 15.9628 21.667 16.2502 21.667H20.5835C20.8708 21.667 21.1464 21.5529 21.3495 21.3497C21.5527 21.1465 21.6668 20.871 21.6668 20.5837Z" stroke="#97A6AF" stroke-width="1.5" stroke-linecap="round" stroke-linejoin="round"/>
</svg>
