<svg width="345" height="41" viewBox="0 0 345 41" fill="none" xmlns="http://www.w3.org/2000/svg">
<rect width="345" height="41" rx="4" fill="#FFE812"/>
<path d="M136.964 16.4336C136.964 17.6445 136.835 18.7207 136.577 19.6621C136.319 20.5996 135.839 21.4746 135.136 22.2871C134.437 23.0957 133.448 23.8223 132.171 24.4668L131.356 23.3359C132.446 22.7969 133.294 22.2012 133.899 21.5488C134.505 20.8965 134.925 20.1797 135.159 19.3984C135.394 18.6172 135.511 17.6934 135.511 16.627V16.4336H136.964ZM136.401 17.6348H132.03V16.4336H136.401V17.6348ZM131.649 20.5703L131.468 19.293L135.54 19.0527V20.207L131.649 20.5703ZM139.817 26.0605H138.317V15.4023H139.817V26.0605ZM141.323 20.7344H139.431V19.5039H141.323V20.7344ZM147.095 16.4336C147.095 17.6445 146.966 18.7207 146.708 19.6621C146.45 20.5996 145.97 21.4746 145.267 22.2871C144.568 23.0957 143.579 23.8223 142.302 24.4668L141.488 23.3359C142.577 22.7969 143.425 22.2012 144.031 21.5488C144.636 20.8965 145.056 20.1797 145.29 19.3984C145.525 18.6172 145.642 17.6934 145.642 16.627V16.4336H147.095ZM146.532 17.6348H142.161V16.4336H146.532V17.6348ZM141.781 20.5703L141.599 19.293L145.671 19.0527V20.207L141.781 20.5703ZM149.949 26.0605H148.449V15.4023H149.949V26.0605ZM151.454 20.7344H149.562V19.5039H151.454V20.7344ZM157.261 23.8574H155.791V21.4023H157.261V23.8574ZM156.529 15.959C157.291 15.959 157.976 16.082 158.585 16.3281C159.199 16.5703 159.677 16.9141 160.021 17.3594C160.369 17.8008 160.542 18.3086 160.542 18.8828C160.542 19.4727 160.369 19.9902 160.021 20.4355C159.677 20.8809 159.201 21.2246 158.591 21.4668C157.982 21.709 157.294 21.8301 156.529 21.8301C155.767 21.8301 155.082 21.709 154.472 21.4668C153.867 21.2246 153.39 20.8809 153.042 20.4355C152.695 19.9902 152.521 19.4727 152.521 18.8828C152.521 18.3086 152.695 17.8008 153.042 17.3594C153.39 16.9141 153.867 16.5703 154.472 16.3281C155.082 16.082 155.767 15.959 156.529 15.959ZM156.529 17.1543C156.037 17.1543 155.597 17.2246 155.21 17.3652C154.828 17.502 154.529 17.7012 154.314 17.9629C154.103 18.2246 153.998 18.5312 153.998 18.8828C153.998 19.2461 154.103 19.5605 154.314 19.8262C154.529 20.0918 154.826 20.293 155.205 20.4297C155.587 20.5664 156.029 20.6367 156.529 20.6406C157.037 20.6367 157.48 20.5664 157.859 20.4297C158.238 20.293 158.533 20.0918 158.744 19.8262C158.959 19.5605 159.066 19.2461 159.066 18.8828C159.066 18.5312 158.959 18.2246 158.744 17.9629C158.533 17.7012 158.236 17.502 157.853 17.3652C157.47 17.2246 157.029 17.1543 156.529 17.1543ZM161.421 24.8301H151.671V23.6055H161.421V24.8301ZM171.552 24.8945H161.802V23.6699H171.552V24.8945ZM167.392 24.1797H165.922V21.6484H167.392V24.1797ZM170.427 19.6387H164.416V21.4609H162.927V18.4668H168.951V17.3066H162.91V16.1055H170.427V19.6387ZM170.679 22.0527H162.927V20.8398H170.679V22.0527ZM180.805 19.4395H178.614V18.2266H180.805V19.4395ZM180.77 22.0938H178.561V20.8867H180.77V22.0938ZM183.705 26.0781H182.299V15.4023H183.705V26.0781ZM181.479 25.6094H180.067V15.6543H181.479V25.6094ZM179.106 16.6797C179.106 17.7305 178.981 18.6855 178.731 19.5449C178.481 20.4043 178.067 21.1953 177.489 21.918C176.914 22.6367 176.145 23.2832 175.18 23.8574L174.301 22.8086C175.114 22.3281 175.764 21.8027 176.252 21.2324C176.744 20.6582 177.102 20.0254 177.324 19.334C177.551 18.6426 177.664 17.8594 177.664 16.9844V16.6797H179.106ZM178.162 17.8809H174.922V16.6797H178.162V17.8809ZM194.329 21.7949H184.602V20.5996H194.329V21.7949ZM190.186 21.1152H188.704V19.1934H190.186V21.1152ZM189.952 15.9414C189.952 16.5977 189.778 17.1953 189.43 17.7344C189.086 18.2695 188.588 18.7188 187.936 19.082C187.288 19.4453 186.52 19.6934 185.633 19.8262L185.094 18.6543C185.86 18.5605 186.512 18.377 187.051 18.1035C187.594 17.8262 188 17.5 188.27 17.125C188.543 16.7461 188.68 16.3516 188.68 15.9414V15.5898H189.952V15.9414ZM190.204 15.9414C190.204 16.3711 190.338 16.7734 190.608 17.1484C190.881 17.5195 191.29 17.8398 191.833 18.1094C192.375 18.3789 193.034 18.5605 193.807 18.6543L193.227 19.8262C192.336 19.6934 191.567 19.4473 190.918 19.0879C190.274 18.7285 189.78 18.2793 189.436 17.7402C189.096 17.2012 188.926 16.6016 188.926 15.9414V15.5898H190.204V15.9414ZM193.139 26.0781H191.651V23.7109H185.674V22.5508H193.139V26.0781ZM203.141 26.0781H201.665V15.4023H203.141V26.0781ZM204.723 20.8164H202.813V19.5918H204.723V20.8164ZM200.938 18.2031H194.675V17.002H200.938V18.2031ZM197.833 18.7949C198.352 18.7949 198.819 18.9043 199.233 19.123C199.647 19.3379 199.971 19.6387 200.206 20.0254C200.444 20.4121 200.563 20.8496 200.563 21.3379C200.563 21.8262 200.444 22.2637 200.206 22.6504C199.971 23.0371 199.647 23.3398 199.233 23.5586C198.819 23.7734 198.352 23.8809 197.833 23.8809C197.313 23.8809 196.846 23.7734 196.432 23.5586C196.018 23.3398 195.694 23.0371 195.46 22.6504C195.225 22.2637 195.108 21.8262 195.108 21.3379C195.108 20.8496 195.225 20.4121 195.46 20.0254C195.694 19.6387 196.018 19.3379 196.432 19.123C196.846 18.9043 197.313 18.7949 197.833 18.7949ZM197.833 20.0137C197.587 20.0137 197.364 20.0684 197.165 20.1777C196.969 20.2832 196.815 20.4375 196.702 20.6406C196.592 20.8398 196.538 21.0723 196.538 21.3379C196.538 21.6074 196.592 21.8418 196.702 22.041C196.815 22.2402 196.969 22.3945 197.165 22.5039C197.364 22.6094 197.587 22.6621 197.833 22.6621C198.087 22.6621 198.311 22.6094 198.507 22.5039C198.702 22.3945 198.852 22.2402 198.958 22.041C199.067 21.8418 199.122 21.6074 199.122 21.3379C199.122 21.0723 199.067 20.8398 198.958 20.6406C198.852 20.4375 198.702 20.2832 198.507 20.1777C198.311 20.0684 198.087 20.0137 197.833 20.0137ZM198.577 17.459H197.089V15.5723H198.577V17.459ZM213.823 26.0781H212.306V15.4023H213.823V26.0781ZM210.63 16.5273C210.63 17.6719 210.476 18.7109 210.167 19.6445C209.862 20.5742 209.345 21.4297 208.614 22.2109C207.884 22.9883 206.905 23.668 205.679 24.25L204.894 23.0547C205.921 22.5703 206.745 22.0254 207.366 21.4199C207.987 20.8145 208.438 20.1348 208.72 19.3809C209.001 18.627 209.142 17.7637 209.142 16.791V16.5273H210.63ZM209.827 17.7051H205.462V16.5273H209.827V17.7051Z" fill="black"/>
<path d="M18 13C13.5817 13 10 15.8691 10 19.4081C10 21.6962 11.4974 23.7039 13.7498 24.8376C13.6273 25.267 12.9624 27.5997 12.9359 27.783C12.9359 27.783 12.92 27.9207 13.0078 27.9732C13.0955 28.0257 13.1988 27.9849 13.1988 27.9849C13.4505 27.9492 16.1175 26.046 16.5791 25.7155C17.0402 25.7818 17.5151 25.8163 18 25.8163C22.4183 25.8163 26 22.9473 26 19.4081C26 15.8691 22.4183 13 18 13Z" fill="black"/>
</svg>
