<svg width="55" height="55" viewBox="0 0 55 55" fill="none" xmlns="http://www.w3.org/2000/svg">
<circle cx="27.5" cy="27.5" r="27.5" fill="#EEF0F1"/>
<path d="M21.375 38.875H38.2493V17.125H15.75V38.875H21.375ZM34.125 18.625H36.7493V20.5H34.125V18.625ZM34.125 22H36.7493V23.875H34.125V22ZM34.125 25.375H36.7493V27.25H34.125V25.375ZM34.125 28.75H36.7493V30.625H34.125V28.75ZM34.125 32.125H36.7493V34H34.125V32.125ZM34.125 35.5H36.7493V37.375H34.125V35.5ZM21.375 25.375V18.625H32.6243V27.25H21.375V25.375ZM21.375 35.5V28.75H32.6243V37.375H21.375V35.5ZM17.25 18.625H19.875V20.5H17.25V18.625ZM17.25 22H19.875V23.875H17.25V22ZM17.25 25.375H19.875V27.25H17.25V25.375ZM17.25 28.75H19.875V30.625H17.25V28.75ZM17.25 32.125H19.875V34H17.25V32.125ZM17.25 35.5H19.875V37.375H17.25V35.5Z" fill="#97A6AF"/>
</svg>
