<svg width="240" height="240" viewBox="0 0 240 240" fill="none" xmlns="http://www.w3.org/2000/svg">
<path d="M3 145V95H10.3171L27.9322 128.278L45.2764 95H53V145H43.5149V118.013L27.9322 145L12.8916 118.013V145H3Z" fill="#FF0558"/>
<path d="M86.8253 120.031C86.8253 123.594 86.1534 126.695 84.8097 129.336C83.4816 131.961 81.6378 133.977 79.2784 135.383C76.9191 136.773 74.2472 137.469 71.2628 137.469C68.2784 137.469 65.6066 136.773 63.2472 135.383C60.9034 133.977 59.0597 131.953 57.7159 129.312C56.3722 126.672 55.7003 123.578 55.7003 120.031C55.7003 116.438 56.3722 113.328 57.7159 110.703C59.0597 108.078 60.9034 106.07 63.2472 104.68C65.6066 103.289 68.2784 102.594 71.2628 102.594C74.2472 102.594 76.9191 103.289 79.2784 104.68C81.6378 106.07 83.4816 108.078 84.8097 110.703C86.1534 113.328 86.8253 116.438 86.8253 120.031ZM80.7081 120.031C80.7081 117.5 80.3097 115.336 79.5128 113.539C78.7316 111.742 77.63 110.383 76.2081 109.461C74.8019 108.539 73.1534 108.078 71.2628 108.078C69.4034 108.078 67.755 108.539 66.3175 109.461C64.8956 110.383 63.7862 111.742 62.9894 113.539C62.2081 115.336 61.8175 117.5 61.8175 120.031C61.8175 122.562 62.2081 124.727 62.9894 126.523C63.7862 128.32 64.8956 129.68 66.3175 130.602C67.755 131.523 69.4034 131.984 71.2628 131.984C73.1534 131.984 74.8019 131.523 76.2081 130.602C77.63 129.68 78.7316 128.32 79.5128 126.523C80.3097 124.727 80.7081 122.562 80.7081 120.031ZM102.811 129.805H103.139L111.998 103.062H118.701L106.748 137H99.2247L87.2716 103.062H93.9747L102.811 129.805ZM127.913 137H121.819V103.062H127.913V137ZM161.148 137H155.734L139.68 113.82H139.375V137H133.281V103.062H138.766L154.773 126.266H155.078V103.062H161.148V137ZM172.587 137H166.493V103.062H172.587V137ZM176.432 103.062H203.502V108.195H193.025V137H186.955V108.195H176.432V103.062ZM211.917 103.062L220.237 118.062H220.589L228.909 103.062H235.823L223.472 124.297V137H217.354V124.297L205.026 103.062H211.917Z" fill="#FF0558"/>
</svg>
