<svg width="30" height="30" viewBox="0 0 30 30" fill="none" xmlns="http://www.w3.org/2000/svg">
<g clip-path="url(#clip0_455_2364)">
<path d="M0 14.9944C0 6.71321 6.71321 0 14.9944 0C23.2755 0 29.9888 6.71321 29.9888 14.9944C29.9888 23.2755 23.2755 29.9888 14.9944 29.9888C6.71321 29.9888 0 23.2755 0 14.9944Z" fill="black"/>
<path d="M16.6026 4.83672L16.5947 9.33215L16.5868 13.8276L16.2169 12.784L16.2162 12.782L15.7383 22.7901C16.2083 24.1171 16.46 24.8255 16.4628 24.8283C16.4664 24.8321 16.7343 24.8482 17.0579 24.8643C18.0383 24.9129 19.2533 25.0171 20.1749 25.1317C20.3883 25.1582 20.572 25.1718 20.5831 25.1618C20.5941 25.152 20.6001 20.5748 20.5965 14.9903L20.5897 4.83672H16.6026ZM9.39111 4.82324V14.9871C9.39111 20.5773 9.39662 25.1566 9.4033 25.1632C9.40998 25.1699 9.75615 25.1372 10.1726 25.0906C10.589 25.0439 11.1646 24.9859 11.4516 24.9617C11.8918 24.9245 13.2059 24.84 13.358 24.8391C13.4023 24.8389 13.4051 24.6106 13.4116 20.5342L13.4184 16.2295L13.7363 17.1291L13.8488 17.447L14.3266 7.44145L14.1624 6.97738C13.9172 6.2838 13.6717 5.59028 13.4261 4.89684L13.3997 4.82324H9.39111Z" fill="#B1060F" stroke="black" stroke-width="0.277125"/>
<path d="M9.39111 4.82324V10.5285L13.4102 21.1898C13.4106 20.9454 13.4111 20.8135 13.4116 20.5342L13.4184 16.2295L13.7363 17.1291C15.5063 22.1375 16.4572 24.8227 16.4628 24.8283C16.4664 24.8321 16.7343 24.8482 17.0579 24.8643C18.0383 24.9129 19.2533 25.0171 20.1749 25.1317C20.3883 25.1582 20.572 25.1718 20.5831 25.1618C20.5906 25.155 20.5956 22.9107 20.5969 19.7446L16.5966 8.24383L16.5947 9.33215L16.5868 13.8276L16.2169 12.784C15.8555 11.7644 15.6142 11.0825 14.1624 6.97738C13.9172 6.2838 13.6717 5.59028 13.4261 4.89684L13.3997 4.82324H9.39111Z" fill="url(#paint0_radial_455_2364)"/>
<path d="M9.39111 4.82324L13.4183 16.2346V16.2295L13.7362 17.1291C15.5062 22.1375 16.4571 24.8227 16.4627 24.8283C16.4663 24.8321 16.7342 24.8482 17.0578 24.8643C18.0381 24.9129 19.2531 25.0171 20.1748 25.1317C20.3872 25.1581 20.5697 25.1716 20.5826 25.162L16.5865 13.8256V13.8276L16.2167 12.784C15.8553 11.7644 15.614 11.0825 14.1622 6.97738C13.7717 5.87348 13.4404 4.93738 13.4259 4.89684L13.3995 4.82324H9.39111Z" fill="#E50914"/>
<path d="M16.6026 4.83672L16.5947 9.33215L16.5868 13.8276L16.2169 12.784L16.2162 12.782L15.7383 22.7901C16.2083 24.1171 16.46 24.8255 16.4628 24.8283C16.4664 24.8321 16.7343 24.8482 17.0579 24.8643C18.0383 24.9129 19.2533 25.0171 20.1749 25.1317C20.3883 25.1582 20.572 25.1718 20.5831 25.1618C20.5941 25.152 20.6001 20.5748 20.5965 14.9903L20.5897 4.83672H16.6026ZM9.39111 4.82324V14.9871C9.39111 20.5773 9.39662 25.1566 9.4033 25.1632C9.40998 25.1699 9.75615 25.1372 10.1726 25.0906C10.589 25.0439 11.1646 24.9859 11.4516 24.9617C11.8918 24.9245 13.2059 24.84 13.358 24.8391C13.4023 24.8389 13.4051 24.6106 13.4116 20.5342L13.4184 16.2295L13.7363 17.1291L13.8488 17.447L14.3266 7.44145L14.1624 6.97738C13.9172 6.2838 13.6717 5.59028 13.4261 4.89684L13.3997 4.82324H9.39111Z" fill="#B1060F" stroke="black" stroke-width="0.277125"/>
<path d="M9.39111 4.82324V10.5285L13.4102 21.1898C13.4106 20.9454 13.4111 20.8135 13.4116 20.5342L13.4184 16.2295L13.7363 17.1291C15.5063 22.1375 16.4572 24.8227 16.4628 24.8283C16.4664 24.8321 16.7343 24.8482 17.0579 24.8643C18.0383 24.9129 19.2533 25.0171 20.1749 25.1317C20.3883 25.1582 20.572 25.1718 20.5831 25.1618C20.5906 25.155 20.5956 22.9107 20.5969 19.7446L16.5966 8.24383L16.5947 9.33215L16.5868 13.8276L16.2169 12.784C15.8555 11.7644 15.6142 11.0825 14.1624 6.97738C13.9172 6.2838 13.6717 5.59028 13.4261 4.89684L13.3997 4.82324H9.39111Z" fill="url(#paint1_radial_455_2364)"/>
<path d="M9.39111 4.82324L13.4183 16.2346V16.2295L13.7362 17.1291C15.5062 22.1375 16.4571 24.8227 16.4627 24.8283C16.4663 24.8321 16.7342 24.8482 17.0578 24.8643C18.0381 24.9129 19.2531 25.0171 20.1748 25.1317C20.3872 25.1581 20.5697 25.1716 20.5826 25.162L16.5865 13.8256V13.8276L16.2167 12.784C15.8553 11.7644 15.614 11.0825 14.1622 6.97738C13.7717 5.87348 13.4404 4.93738 13.4259 4.89684L13.3995 4.82324H9.39111Z" fill="#E50914"/>
</g>
<defs>
<radialGradient id="paint0_radial_455_2364" cx="0" cy="0" r="1" gradientUnits="userSpaceOnUse" gradientTransform="translate(14.808 8.22081) scale(7.89316 7.89323)">
<stop/>
<stop offset="1" stop-opacity="0"/>
</radialGradient>
<radialGradient id="paint1_radial_455_2364" cx="0" cy="0" r="1" gradientUnits="userSpaceOnUse" gradientTransform="translate(14.808 8.22081) scale(7.89316 7.89323)">
<stop/>
<stop offset="1" stop-opacity="0"/>
</radialGradient>
<clipPath id="clip0_455_2364">
<rect width="30" height="30" fill="white"/>
</clipPath>
</defs>
</svg>
