<svg width="20" height="20" viewBox="0 0 20 20" fill="none" xmlns="http://www.w3.org/2000/svg">
<path d="M13.0273 2.6625L11.6242 4.06563L15.9336 8.375L17.3367 6.97188C17.7617 6.55 17.9992 5.975 17.9992 5.375C17.9992 4.775 17.7617 4.2 17.3367 3.77813L16.2211 2.6625C15.7992 2.2375 15.2242 2 14.6242 2C14.0242 2 13.4492 2.2375 13.0273 2.6625ZM10.5648 5.125L3.83981 11.8469C3.50543 12.1813 3.26168 12.6 3.13356 13.0563L2.02731 17.05C1.95543 17.3094 2.0273 17.5906 2.22106 17.7813C2.41481 17.9719 2.69293 18.0469 2.95231 17.975L6.94606 16.8656C7.40231 16.7375 7.81793 16.4969 8.15543 16.1594L14.8742 9.43438L10.5648 5.125Z" fill="#D1D8DB"/>
</svg>
