<svg width="8" height="8" viewBox="0 0 8 8" fill="none" xmlns="http://www.w3.org/2000/svg">
<path d="M2.86123 1.36321C3.36801 0.454403 3.62121 0 4 0C4.37879 0 4.63198 0.454403 5.13877 1.36321L5.26997 1.59841C5.41397 1.85681 5.48596 1.98601 5.59796 2.07121C5.70996 2.15641 5.84996 2.18801 6.12995 2.25121L6.38434 2.30881C7.36832 2.53162 7.85991 2.64282 7.97711 3.01922C8.0939 3.39522 7.75871 3.78762 7.08793 4.57203L6.91433 4.77483C6.72394 4.99763 6.62834 5.10923 6.58554 5.24683C6.54274 5.38483 6.55714 5.53364 6.58594 5.83084L6.61234 6.10164C6.71354 7.14845 6.76433 7.67165 6.45794 7.90405C6.15155 8.13645 5.69076 7.92445 4.76998 7.50045L4.53119 7.39085C4.26959 7.27005 4.1388 7.21005 4 7.21005C3.8612 7.21005 3.73041 7.27005 3.46881 7.39085L3.23042 7.50045C2.30924 7.92445 1.84845 8.13645 1.54246 7.90445C1.23566 7.67165 1.28646 7.14845 1.38766 6.10164L1.41406 5.83124C1.44286 5.53364 1.45726 5.38483 1.41406 5.24723C1.37166 5.10923 1.27606 4.99763 1.08567 4.77523L0.912073 4.57203C0.241288 3.78802 -0.0939038 3.39562 0.0228935 3.01922C0.139691 2.64282 0.632079 2.53122 1.61606 2.30881L1.87045 2.25121C2.15004 2.18801 2.28964 2.15641 2.40204 2.07121C2.51443 1.98601 2.58603 1.85681 2.73003 1.59841L2.86123 1.36321Z" fill="#FF0558"/>
</svg>
