<svg width="26" height="26" viewBox="0 0 26 26" fill="none" xmlns="http://www.w3.org/2000/svg">
<path d="M12.9993 1.16602C7.0161 1.16602 2.16602 6.0161 2.16602 11.9993C2.16602 17.9826 7.0161 22.8327 12.9993 22.8327C18.9826 22.8327 23.8327 17.9826 23.8327 11.9993C23.8327 6.0161 18.9826 1.16602 12.9993 1.16602Z" stroke="#97A6AF" stroke-width="1.5" stroke-linecap="round" stroke-linejoin="round"/>
<path d="M4.62598 18.8739C4.62598 18.8739 7.04073 15.7907 12.9991 15.7907C18.9574 15.7907 21.3732 18.8739 21.3732 18.8739M12.9991 11.999C13.861 11.999 14.6877 11.6566 15.2972 11.0471C15.9067 10.4376 16.2491 9.61098 16.2491 8.74902C16.2491 7.88707 15.9067 7.06042 15.2972 6.45093C14.6877 5.84143 13.861 5.49902 12.9991 5.49902C12.1371 5.49902 11.3105 5.84143 10.701 6.45093C10.0915 7.06042 9.74906 7.88707 9.74906 8.74902C9.74906 9.61098 10.0915 10.4376 10.701 11.0471C11.3105 11.6566 12.1371 11.999 12.9991 11.999Z" stroke="#97A6AF" stroke-width="1.5" stroke-linecap="round" stroke-linejoin="round"/>
</svg>
