<svg width="20" height="20" viewBox="0 0 20 20" fill="none" xmlns="http://www.w3.org/2000/svg">
<path d="M14.1665 18.3337C13.4721 18.3337 12.8818 18.0906 12.3957 17.6045C11.9096 17.1184 11.6665 16.5281 11.6665 15.8337C11.6665 15.7503 11.6873 15.5559 11.729 15.2503L5.87484 11.8337C5.65262 12.042 5.39567 12.2052 5.104 12.3232C4.81234 12.4413 4.49984 12.5003 4.1665 12.5003C3.47206 12.5003 2.88178 12.2573 2.39567 11.7712C1.90956 11.285 1.6665 10.6948 1.6665 10.0003C1.6665 9.30588 1.90956 8.7156 2.39567 8.22949C2.88178 7.74338 3.47206 7.50033 4.1665 7.50033C4.49984 7.50033 4.81234 7.55935 5.104 7.67741C5.39567 7.79546 5.65262 7.95866 5.87484 8.16699L11.729 4.75033C11.7012 4.6531 11.6839 4.55935 11.6769 4.46908C11.67 4.3788 11.6665 4.2781 11.6665 4.16699C11.6665 3.47255 11.9096 2.88227 12.3957 2.39616C12.8818 1.91005 13.4721 1.66699 14.1665 1.66699C14.8609 1.66699 15.4512 1.91005 15.9373 2.39616C16.4234 2.88227 16.6665 3.47255 16.6665 4.16699C16.6665 4.86144 16.4234 5.45171 15.9373 5.93783C15.4512 6.42394 14.8609 6.66699 14.1665 6.66699C13.8332 6.66699 13.5207 6.60796 13.229 6.48991C12.9373 6.37185 12.6804 6.20866 12.4582 6.00033L6.604 9.41699C6.63178 9.51421 6.64914 9.60796 6.65609 9.69824C6.66303 9.78852 6.6665 9.88921 6.6665 10.0003C6.6665 10.1114 6.66303 10.2121 6.65609 10.3024C6.64914 10.3927 6.63178 10.4864 6.604 10.5837L12.4582 14.0003C12.6804 13.792 12.9373 13.6288 13.229 13.5107C13.5207 13.3927 13.8332 13.3337 14.1665 13.3337C14.8609 13.3337 15.4512 13.5767 15.9373 14.0628C16.4234 14.5489 16.6665 15.1392 16.6665 15.8337C16.6665 16.5281 16.4234 17.1184 15.9373 17.6045C15.4512 18.0906 14.8609 18.3337 14.1665 18.3337Z" fill="#EEF0F1"/>
</svg>
