<svg width="16" height="16" viewBox="0 0 16 16" fill="none" xmlns="http://www.w3.org/2000/svg">
<path d="M6.29184 4.04481C7.05202 2.6816 7.43181 2 8 2C8.56819 2 8.94798 2.6816 9.70816 4.04481L9.90495 4.39762C10.1209 4.78522 10.2289 4.97902 10.3969 5.10682C10.5649 5.23462 10.7749 5.28202 11.1949 5.37682L11.5765 5.46322C13.0525 5.79742 13.7899 5.96423 13.9657 6.52883C14.1409 7.09283 13.6381 7.68144 12.6319 8.85804L12.3715 9.16225C12.0859 9.49645 11.9425 9.66385 11.8783 9.87025C11.8141 10.0773 11.8357 10.3005 11.8789 10.7463L11.9185 11.1525C12.0703 12.7227 12.1465 13.5075 11.6869 13.8561C11.2273 14.2047 10.5361 13.8867 9.15497 13.2507L8.79678 13.0863C8.40439 12.9051 8.20819 12.8151 8 12.8151C7.7918 12.8151 7.59561 12.9051 7.20322 13.0863L6.84563 13.2507C5.46386 13.8867 4.77268 14.2047 4.31369 13.8567C3.8535 13.5075 3.9297 12.7227 4.08149 11.1525L4.12109 10.7469C4.16429 10.3005 4.18589 10.0773 4.12109 9.87085C4.05749 9.66385 3.9141 9.49645 3.6285 9.16285L3.36811 8.85804C2.36193 7.68204 1.85914 7.09343 2.03434 6.52883C2.20954 5.96423 2.94812 5.79682 4.42408 5.46322L4.80567 5.37682C5.22506 5.28202 5.43446 5.23462 5.60306 5.10682C5.77165 4.97902 5.87905 4.78522 6.09504 4.39762L6.29184 4.04481Z" fill="#FF9933"/>
</svg>
