<svg width="24" height="24" viewBox="0 0 24 24" fill="none" xmlns="http://www.w3.org/2000/svg">
<path d="M7.10809 22.3907C7.61038 22.3907 7.95195 22.1293 8.55452 21.5871L12.0302 18.5035H18.4687C21.4618 18.5035 23.0689 16.8463 23.0689 13.9028V6.20868C23.0689 3.26568 21.4618 1.6084 18.4687 1.6084H5.53095C2.54809 1.6084 0.930664 3.25583 0.930664 6.20868V13.9028C0.930664 16.8561 2.54766 18.5035 5.53095 18.5035H6.01309V21.1148C6.01309 21.8884 6.41509 22.3907 7.10809 22.3907ZM7.51952 20.5525V17.6395C7.51952 17.0974 7.31895 16.8861 6.76652 16.8861H5.54081C3.50209 16.8861 2.54766 15.8515 2.54766 13.893V6.20868C2.54766 4.25011 3.50209 3.22583 5.54124 3.22583H18.4687C20.4975 3.22583 21.4515 4.25011 21.4515 6.20868V13.893C21.4515 15.8515 20.4975 16.8861 18.4687 16.8861H11.9595C11.4071 16.8861 11.1161 16.9667 10.7338 17.3584L7.51952 20.5525ZM6.88695 7.50468H17.1127C17.4341 7.50468 17.6955 7.25354 17.6955 6.92183C17.6955 6.6004 17.4341 6.34926 17.1127 6.34926H6.88695C6.8115 6.34834 6.73664 6.36252 6.66675 6.39097C6.59687 6.41941 6.53338 6.46156 6.48003 6.51491C6.42668 6.56826 6.38454 6.63175 6.35609 6.70163C6.32764 6.77151 6.31346 6.84638 6.31438 6.92183C6.31438 7.25354 6.56552 7.50468 6.88695 7.50468ZM6.88695 10.7691H17.1127C17.4341 10.7691 17.6955 10.518 17.6955 10.1863C17.6955 9.87511 17.4341 9.60383 17.1127 9.60383H6.88695C6.56552 9.60383 6.31438 9.87511 6.31438 10.1867C6.31438 10.518 6.56552 10.7691 6.88695 10.7691ZM6.88695 14.0434H13.5367C13.8581 14.0434 14.1195 13.7927 14.1195 13.4713C14.1195 13.1395 13.8581 12.8785 13.5367 12.8785H6.88695C6.56552 12.8785 6.31438 13.14 6.31438 13.4713C6.31438 13.7927 6.56552 14.0434 6.88695 14.0434Z" fill="#97A6AF"/>
</svg>
