<svg width="40" height="40" viewBox="0 0 40 40" fill="none" xmlns="http://www.w3.org/2000/svg">
<path opacity="0.7" d="M2 14C2 11.7909 3.79086 10 6 10H33C35.2091 10 37 11.7909 37 14V26C37 28.2091 35.2091 30 33 30H6C3.79086 30 2 28.2091 2 26V14Z" fill="black"/>
<path d="M14.3477 25.1367C13.7005 25.1367 13.1195 25.0273 12.6045 24.8086C12.0895 24.5898 11.6839 24.2822 11.3877 23.8857C11.0915 23.4893 10.9297 23.0312 10.9023 22.5117H12.1465C12.1738 22.8125 12.2855 23.0791 12.4814 23.3115C12.6774 23.5439 12.9372 23.724 13.2607 23.8516C13.5843 23.9792 13.9421 24.043 14.334 24.043C14.7624 24.043 15.1497 23.9678 15.4961 23.8174C15.8424 23.667 16.1113 23.4619 16.3027 23.2021C16.4941 22.9424 16.5898 22.6439 16.5898 22.3066C16.5898 21.9421 16.4964 21.6208 16.3096 21.3428C16.1227 21.0648 15.8493 20.8483 15.4893 20.6934C15.1292 20.5384 14.694 20.4609 14.1836 20.4609H13.377V19.3809H14.1836C14.5846 19.3809 14.9401 19.3102 15.25 19.1689C15.5599 19.0277 15.7992 18.8294 15.9678 18.5742C16.1364 18.319 16.2207 18.0228 16.2207 17.6855C16.2207 17.3574 16.1455 17.068 15.9951 16.8174C15.8447 16.5667 15.6305 16.373 15.3525 16.2363C15.0745 16.0996 14.7487 16.0312 14.375 16.0312C14.0195 16.0312 13.6868 16.0951 13.377 16.2227C13.0671 16.3503 12.8141 16.5303 12.6182 16.7627C12.4222 16.9951 12.3151 17.2708 12.2969 17.5898H11.1074C11.1348 17.0794 11.2965 16.6237 11.5928 16.2227C11.889 15.8216 12.2832 15.5117 12.7754 15.293C13.2676 15.0742 13.8053 14.9648 14.3887 14.9648C14.9993 14.9648 15.5348 15.0833 15.9951 15.3203C16.4554 15.5573 16.8086 15.8786 17.0547 16.2842C17.3008 16.6898 17.4193 17.1341 17.4102 17.6172C17.4193 17.9818 17.3555 18.3167 17.2188 18.6221C17.082 18.9274 16.8861 19.1849 16.6309 19.3945C16.3757 19.6042 16.0749 19.7591 15.7285 19.8594V19.9277C16.1569 19.9915 16.526 20.1328 16.8359 20.3516C17.1458 20.5703 17.3851 20.846 17.5537 21.1787C17.7223 21.5114 17.8021 21.8874 17.793 22.3066C17.8021 22.8353 17.6562 23.3161 17.3555 23.749C17.0547 24.182 16.64 24.5215 16.1113 24.7676C15.5827 25.0137 14.9948 25.1367 14.3477 25.1367Z" fill="#FEFFFF"/>
<path d="M26 24L21.6699 16.5H30.3301L26 24Z" fill="#1CA8AF"/>
</svg>
