<svg width="55" height="55" viewBox="0 0 55 55" fill="none" xmlns="http://www.w3.org/2000/svg">
<circle cx="27.5" cy="27.5" r="27.5" fill="#EEF0F1"/>
<path d="M24 37V35H20C19.45 35 18.9793 34.8043 18.588 34.413C18.1967 34.0217 18.0007 33.5507 18 33V21C18 20.45 18.196 19.9793 18.588 19.588C18.98 19.1967 19.4507 19.0007 20 19H36C36.55 19 37.021 19.196 37.413 19.588C37.805 19.98 38.0007 20.4507 38 21V33C38 33.55 37.8043 34.021 37.413 34.413C37.0217 34.805 36.5507 35.0007 36 35H32V37H24ZM20 33H36V21H20V33Z" fill="#97A6AF"/>
</svg>
