<svg width="40" height="40" viewBox="0 0 40 40" fill="none" xmlns="http://www.w3.org/2000/svg">
<path opacity="0.7" d="M2 14C2 11.7909 3.79086 10 6 10H33C35.2091 10 37 11.7909 37 14V26C37 28.2091 35.2091 30 33 30H6C3.79086 30 2 28.2091 2 26V14Z" fill="black"/>
<path d="M10.916 24.0977L14.293 20.543C14.7396 20.069 15.0814 19.6885 15.3184 19.4014C15.5553 19.1143 15.7331 18.834 15.8516 18.5605C15.9701 18.2871 16.0293 18.0046 16.0293 17.7129C16.0293 17.3848 15.9427 17.0931 15.7695 16.8379C15.5964 16.5827 15.3617 16.3844 15.0654 16.2432C14.7692 16.1019 14.4342 16.0312 14.0605 16.0312C13.6777 16.0312 13.3405 16.1087 13.0488 16.2637C12.7572 16.4186 12.5316 16.6374 12.3721 16.9199C12.2126 17.2025 12.1328 17.526 12.1328 17.8906H10.9707C10.9707 17.3164 11.1051 16.8083 11.374 16.3662C11.6429 15.9242 12.0166 15.5801 12.4951 15.334C12.9736 15.0879 13.5091 14.9648 14.1016 14.9648C14.694 14.9648 15.2227 15.0856 15.6875 15.3271C16.1523 15.5687 16.5169 15.8991 16.7812 16.3184C17.0456 16.7376 17.1777 17.2025 17.1777 17.7129C17.1777 18.0866 17.1094 18.4466 16.9727 18.793C16.8359 19.1393 16.6081 19.5199 16.2891 19.9346C15.9701 20.3493 15.5098 20.8665 14.9082 21.4863L12.6387 23.8242V23.9062H17.3555V25H10.9297L10.916 24.0977Z" fill="#FEFFFF"/>
<path d="M26 17L21.6699 24.5H30.3301L26 17Z" fill="#FF0558"/>
</svg>
