<svg width="20" height="20" viewBox="0 0 20 20" fill="none" xmlns="http://www.w3.org/2000/svg">
<circle cx="10" cy="10" r="10" fill="#D1D8DB"/>
<path d="M10.0002 2.33398C10.8842 2.33398 11.7321 2.68517 12.3572 3.31029C12.9823 3.93542 13.3335 4.78326 13.3335 5.66732C13.3335 6.55137 12.9823 7.39922 12.3572 8.02434C11.7321 8.64946 10.8842 9.00065 10.0002 9.00065C9.11611 9.00065 8.26826 8.64946 7.64314 8.02434C7.01802 7.39922 6.66683 6.55137 6.66683 5.66732C6.66683 4.78326 7.01802 3.93542 7.64314 3.31029C8.26826 2.68517 9.11611 2.33398 10.0002 2.33398ZM10.0002 10.6673C13.6835 10.6673 16.6668 12.159 16.6668 14.0007V15.6673H3.3335V14.0007C3.3335 12.159 6.31683 10.6673 10.0002 10.6673Z" fill="#97A6AF"/>
</svg>
